<svg aria-hidden="true" style="position: absolute; width: 0; height: 0; overflow: hidden;" version="1.1" xmlns="http://www.w3.org/2000/svg" xmlns:xlink="http://www.w3.org/1999/xlink">
<defs>
<symbol id="icon-triangle-down" viewBox="0 0 1000 1000">
<path d="M250 300h500l-250 450-250-450z"></path>
</symbol>
<symbol id="icon-search" viewBox="0 0 1000 1000">
<path d="M607.098 638.348c-43.434 30.949-96.577 49.152-153.973 49.152-146.7 0-265.625-118.925-265.625-265.625s118.925-265.625 265.625-265.625c146.7 0 265.625 118.925 265.625 265.625 0 57.396-18.204 110.539-49.152 153.973l174.525 174.525c17.193 17.193 17.051 44.705-0.006 61.762l-0.732 0.732c-17.013 17.013-44.708 17.060-61.762 0.006l-174.525-174.525zM453.125 625c112.183 0 203.125-90.942 203.125-203.125s-90.942-203.125-203.125-203.125c-112.183 0-203.125 90.942-203.125 203.125s90.942 203.125 203.125 203.125v0z"></path>
</symbol>
</defs>
</svg>
