<svg aria-hidden="true" style="position: absolute; width: 0; height: 0; overflow: hidden;" version="1.1" xmlns="http://www.w3.org/2000/svg" xmlns:xlink="http://www.w3.org/1999/xlink">
<defs>
<symbol id="svgicon-screenshot" viewBox="0 0 343 300">
<path d="M82.762 78.45h247.873c6.822 0 12.352 5.53 12.352 12.352v117.76c0 6.822-5.53 12.352-12.352 12.352h-247.873c-6.822 0-12.352-5.53-12.352-12.352v-117.76c0-6.822 5.53-12.352 12.352-12.352z"></path>
<path d="M0 126.419h330.223v123.525h-330.223v-123.525z"></path>
<path d="M187.177 0.125l104.568-0.146 0.419 299.864-104.568 0.146-0.419-299.864z"></path>
</symbol>
<symbol id="svgicon-download" viewBox="0 0 300 300">
<path fill="#424242" style="fill: var(--color1, #424242)" d="M233.895 246.045h-29.145c-4.965 0-9-4.035-9-9s4.035-9 9-9h29.13c22.62 0 41.025-18.405 41.025-41.025s-18.405-41.025-41.025-41.025h-1.47c-4.905 0-8.91-3.93-9-8.835-0.75-39.735-33.69-72.060-73.425-72.060s-72.66 32.34-73.41 72.075c-0.094 4.899-4.088 8.834-9 8.835h-1.47c-22.62 0-41.025 18.405-41.025 41.025s18.405 41.025 41.025 41.025h26.61c4.965 0 9 4.035 9 9s-4.035 9-9 9h-26.61c-32.55 0-59.025-26.475-59.025-59.025 0-30.18 22.77-55.14 52.035-58.62 2.295-20.865 11.64-40.185 26.79-55.080 17.205-16.905 39.975-26.22 64.095-26.22s46.875 9.315 64.080 26.22c15.15 14.895 24.495 34.215 26.79 55.080 29.265 3.465 52.035 28.425 52.035 58.62 0.015 32.535-26.475 59.010-59.010 59.010z"></path>
<path fill="#f8b62d" style="fill: var(--color2, #f8b62d)" d="M188.385 212.1c-1.633-1.653-3.899-2.676-6.405-2.676-2.468 0-4.704 0.993-6.331 2.602l-16.604 16.409v-67.65c0-4.965-4.035-9-9-9s-9 4.035-9 9v67.725l-16.59-16.47c-1.629-1.613-3.87-2.61-6.345-2.61-2.497 0-4.757 1.015-6.39 2.655l-0 0c-1.613 1.629-2.61 3.87-2.61 6.345 0 2.497 1.015 4.757 2.655 6.39l0 0 31.86 31.635c1.629 1.612 3.871 2.607 6.345 2.607 2.467 0 4.702-0.99 6.331-2.594l-0.001 0.001 31.995-31.635c1.66-1.632 2.689-3.902 2.689-6.412 0-2.465-0.992-4.699-2.6-6.323l0.001 0.001z"></path>
</symbol>
<symbol id="svgicon-airplane" viewBox="0 0 300 300">
<path fill="#f8b62d" style="fill: var(--color2, #f8b62d)" d="M205.725 119.775c-15.105 0-27.375-12.285-27.375-27.39s12.285-27.375 27.375-27.375c15.105 0 27.39 12.285 27.39 27.375-0.015 15.105-12.285 27.39-27.39 27.39zM205.725 83.010c-5.175 0-9.375 4.215-9.375 9.375 0 5.175 4.215 9.39 9.375 9.39s9.39-4.215 9.39-9.39c-0.015-5.16-4.215-9.375-9.39-9.375zM59.085 264.15c-4.845 0-10.035-0.645-15.555-2.115-3.364-0.912-5.911-3.639-6.546-7.039l-0.009-0.056c-6.465-35.535 19.41-56.94 33.99-63.285 4.56-1.995 9.855 0.105 11.85 4.665 0.472 1.058 0.747 2.294 0.747 3.593 0 3.658-2.179 6.807-5.31 8.219l-0.057 0.023c-1.125 0.51-25.335 11.67-24.18 37.665 26.040 3.36 36.885-19.845 38.115-22.695 1.965-4.545 7.23-6.69 11.79-4.755 3.255 1.402 5.492 4.582 5.492 8.284 0 1.249-0.255 2.438-0.715 3.519l0.022-0.059c-5.46 13.005-22.095 34.035-49.635 34.035z"></path>
<path fill="#424242" style="fill: var(--color1, #5e6368)" d="M278.385 27.75c-0.824-3.868-4.046-6.784-8.005-7.138l-0.035-0.002c-3.525-0.315-86.7-6.675-148.26 57-6.555 6.78-12.285 13.035-17.325 18.81l-49.65-2.010c-0.111-0.005-0.242-0.008-0.373-0.008-3.76 0-6.981 2.31-8.321 5.588l-0.022 0.060-26.145 65.205c-1.23 3.060-0.675 6.555 1.425 9.090 1.661 1.995 4.144 3.255 6.922 3.255 0.003 0 0.006 0 0.008 0h-0c0.57 0 1.155-0.060 1.74-0.165l43.275-8.535 58.335 58.335-8.085 40.965c-0.645 3.24 0.54 6.57 3.090 8.67 1.635 1.365 3.675 2.070 5.745 2.070 1.125 0 2.265-0.21 3.345-0.645l65.205-26.145c3.338-1.36 5.648-4.579 5.648-8.338 0-0.132-0.003-0.264-0.008-0.396l0.001 0.019-1.995-49.020c17.445-14.85 35.145-34.365 47.715-59.070 33.795-66.39 26.115-105.945 25.77-107.595zM60.72 112.65l29.685 1.2c-0.39 0.51-0.75 1.005-1.14 1.5-0.015 0.015-0.015 0.030-0.030 0.045-2.445 3.225-4.605 6.24-6.525 9.030-0.18 0.27-0.36 0.54-0.54 0.795-0.345 0.495-0.675 0.99-1.005 1.485-0.255 0.39-0.51 0.765-0.765 1.14s-0.51 0.765-0.75 1.14c-0.48 0.75-0.945 1.47-1.395 2.175l-0.315 0.495c-0.39 0.615-0.75 1.215-1.11 1.8l-0.27 0.45c-0.39 0.66-0.78 1.29-1.14 1.92-0.030 0.045-0.060 0.090-0.075 0.135-3.39 5.805-5.445 10.14-6.855 13.155-0.315 0.675-0.63 1.335-0.9 1.89-0.015 0.030-0.030 0.060-0.045 0.075-0.135 0.255-0.24 0.495-0.36 0.705l-24.090 4.755 17.625-43.89zM188.64 237.81l-43.92 17.61 5.040-25.59c7.365-3.39 21.525-10.53 37.65-21.885l1.23 29.865zM236.58 127.185c-25.68 50.445-76.83 77.97-93.405 85.83l-57.675-57.675c0.315-0.675 0.66-1.38 1.035-2.145l0.135-0.27c0.15-0.315 0.315-0.63 0.48-0.96 3.225-6.36 8.79-16.035 19.695-29.91 0.195-0.255 0.39-0.495 0.6-0.75 0.525-0.66 1.050-1.32 1.59-1.995 0.81-0.99 1.635-2.010 2.49-3.045 0.285-0.345 0.57-0.69 0.855-1.020 1.035-1.23 2.085-2.49 3.195-3.78l0.015-0.015c5.445-6.375 11.88-13.455 19.455-21.3 45.36-46.89 105.45-51.63 126.3-51.765 0.3 13.11-2.025 44.115-24.765 88.8z"></path>
</symbol>
<symbol id="svgicon-champion" viewBox="0 0 300 300">
<path fill="#424242" style="fill: var(--color1, #5e6368)" d="M283.5 21.12c-1.622-2.522-4.414-4.168-7.59-4.17h-74.070c-3.525 0-6.72 2.055-8.19 5.265l-26.715 58.485c-5.010-0.75-10.14-1.14-15.36-1.14-6.015 0-11.895 0.54-17.64 1.53l-26.91-58.89c-1.455-3.132-4.573-5.264-8.19-5.265h-74.070c-4.967 0.005-8.991 4.032-8.991 9 0 1.383 0.312 2.694 0.87 3.865l-0.023-0.054 46.515 99.42c-9.558 15.338-15.225 33.959-15.225 53.904 0 0.039 0 0.078 0 0.117v-0.006c0 57.15 46.5 103.65 103.65 103.65s103.65-46.5 103.65-103.65c0-20.715-6.135-40.020-16.635-56.22l45.48-97.215c1.305-2.775 1.095-6.030-0.555-8.625zM93.060 34.95l23.16 50.685c-16.151 5.955-29.847 15.26-40.794 27.138l-0.065 0.072-36.45-77.895h54.15zM151.56 268.845c-47.235 0-85.65-38.43-85.65-85.65s38.43-85.65 85.65-85.65 85.65 38.43 85.65 85.65-38.415 85.65-85.65 85.65zM226.125 111.090c-11.207-11.62-25.069-20.601-40.615-25.972l-0.725-0.218 22.815-49.95h54.15l-35.625 76.14z"></path>
<path fill="#f8b62d" style="fill: var(--color2, #f8b62d)" d="M179.82 235.68c-1.44 0-2.865-0.345-4.185-1.035l-24.075-12.645-24.075 12.66c-1.213 0.652-2.655 1.034-4.186 1.034-1.99 0-3.829-0.647-5.319-1.742l0.025 0.018c-2.261-1.658-3.713-4.305-3.713-7.291 0-0.535 0.047-1.059 0.136-1.568l-0.008 0.054 4.59-26.805-19.47-18.99c-1.676-1.641-2.715-3.927-2.715-6.456 0-0.99 0.159-1.942 0.453-2.833l-0.018 0.064c1.074-3.225 3.836-5.606 7.21-6.114l0.050-0.006 26.91-3.915 12.030-24.39c1.515-3.075 4.65-5.010 8.070-5.010s6.555 1.95 8.070 5.010l12.030 24.39 26.91 3.915c3.427 0.509 6.19 2.892 7.242 6.057l0.018 0.064c0.282 0.832 0.444 1.791 0.444 2.787 0 2.525-1.043 4.806-2.722 6.436l-0.002 0.002-19.47 18.99 4.59 26.805c0.585 3.375-0.81 6.795-3.585 8.805-1.441 1.068-3.254 1.71-5.217 1.71-0.006 0-0.013 0-0.019 0h0.001zM151.56 202.83c1.44 0 2.88 0.345 4.185 1.035l12.12 6.375-2.31-13.5c-0.495-2.925 0.465-5.895 2.595-7.965l9.81-9.555-13.545-1.965c-2.992-0.443-5.469-2.305-6.756-4.868l-0.023-0.052-6.060-12.27-6.075 12.255c-1.305 2.655-3.84 4.5-6.78 4.92l-13.545 1.965 9.81 9.555c1.68 1.642 2.721 3.93 2.721 6.461 0 0.531-0.046 1.052-0.134 1.558l0.008-0.054-2.31 13.5 12.12-6.375c1.209-0.643 2.643-1.020 4.165-1.020 0.002 0 0.003 0 0.005 0h-0z"></path>
</symbol>
<symbol id="svgicon-experiment" viewBox="0 0 300 300">
<path fill="#f8b62d" style="fill: var(--color2, #ABDA8B)" d="M117.015 198.42c-23.565 0-43.38-7.875-44.64-8.385-3.32-1.376-5.612-4.59-5.612-8.34 0-1.222 0.243-2.387 0.684-3.449l-0.022 0.060c1.37-3.319 4.581-5.613 8.328-5.613 1.221 0 2.385 0.243 3.446 0.685l-0.059-0.022c0.6 0.24 39.42 15.495 67.575 0.405 35.88-19.215 80.835-2.52 91.020 9.96 1.264 1.537 2.030 3.526 2.030 5.692 0 4.969-4.028 8.997-8.997 8.997-2.802 0-5.305-1.281-6.955-3.289l-0.013-0.016c-3.975-4.74-39.765-20.925-68.58-5.475-12.33 6.6-25.785 8.79-38.205 8.79z"></path>
<path fill="#424242" style="fill: var(--color1, #5e6368)" d="M258.27 281.745h-215.43c-7.635 0-14.49-3.945-18.33-10.545s-3.885-14.505-0.12-21.15l76.11-134.1c0.27-0.48 0.42-1.035 0.42-1.59v-86.025c0-4.965 4.035-9 9-9h79.8c4.965 0 9 4.035 9 9v85.98c0 0.57 0.15 1.125 0.435 1.605l77.475 133.98c3.84 6.645 3.84 14.58 0.015 21.225-3.84 6.645-10.71 10.62-18.375 10.62zM118.92 37.335v77.025c0 3.66-0.96 7.29-2.76 10.47l-76.11 134.1c-0.795 1.395-0.33 2.61 0.015 3.21s1.17 1.605 2.775 1.605h215.43c1.62 0 2.445-1.005 2.79-1.605s0.81-1.815 0-3.225l-77.475-133.98c-1.788-3.047-2.846-6.709-2.85-10.619v-76.981h-61.815z"></path>
<path fill="#424242" style="fill: var(--color1, #5e6368)" d="M209.355 37.335h-119.805c-4.965 0-9-4.035-9-9s4.035-9 9-9h119.805c4.965 0 9 4.035 9 9s-4.020 9-9 9z"></path>
</symbol>
<symbol id="svgicon-tag" viewBox="0 0 300 300">
<path fill="#44454a" style="fill: var(--color3, #44454a)" d="M166.44 277.065c-14.025 0-27.21-5.46-37.125-15.375l-88.41-88.41c-9.9-9.9-15.51-23.61-15.375-37.62l0.75-80.025c0.148-18.123 14.583-32.827 32.587-33.404l0.053-0.001 82.41-2.685c14.46-0.48 28.605 5.13 38.835 15.345 1.356 1.358 2.194 3.232 2.194 5.302s-0.838 3.945-2.194 5.303v0c-1.358 1.356-3.232 2.194-5.302 2.194s-3.945-0.838-5.303-2.194v0c-6.803-6.787-16.192-10.983-26.562-10.983-0.412 0-0.823 0.007-1.233 0.020l0.060-0.001-82.41 2.685c-10.065 0.33-18.030 8.475-18.135 18.555l-0.75 80.025c-0.090 10.005 3.915 19.8 10.98 26.865l88.41 88.41c7.080 7.080 16.5 10.98 26.52 10.98s19.44-3.9 26.52-10.98l64.575-64.575c7.080-7.080 10.98-16.5 10.98-26.52s-3.9-19.44-10.98-26.52l-54.885-54.84c-2.925-2.925-2.94-7.68 0-10.605 1.358-1.356 3.232-2.194 5.302-2.194s3.945 0.838 5.303 2.194l54.885 54.84c9.915 9.915 15.375 23.1 15.375 37.125s-5.46 27.21-15.375 37.125l-64.575 64.575c-9.93 9.93-23.115 15.39-37.125 15.39z"></path>
<path fill="#ffd833" style="fill: var(--color4, #ffd833)" d="M82.95 101.67c0 14.025 11.37 25.395 25.395 25.395s25.395-11.37 25.395-25.395v0c0-14.025-11.37-25.395-25.395-25.395s-25.395 11.37-25.395 25.395v0z"></path>
<path fill="#44454a" style="fill: var(--color3, #44454a)" d="M108.345 134.565c-18.135 0-32.895-14.76-32.895-32.895s14.76-32.895 32.895-32.895 32.895 14.76 32.895 32.895-14.76 32.895-32.895 32.895zM108.345 83.775c-9.87 0-17.895 8.025-17.895 17.895s8.025 17.895 17.895 17.895 17.895-8.025 17.895-17.895-8.025-17.895-17.895-17.895zM121.485 198.555c-1.935 0-3.87-0.75-5.34-2.235-1.336-1.353-2.162-3.212-2.162-5.265 0-2.090 0.856-3.98 2.236-5.339l0.001-0.001 76.695-75.705c1.353-1.336 3.212-2.162 5.265-2.162 2.090 0 3.98 0.856 5.339 2.236l0.001 0.001c1.336 1.353 2.162 3.212 2.162 5.265 0 2.090-0.856 3.98-2.236 5.339l-0.001 0.001-76.695 75.705c-1.455 1.44-3.36 2.16-5.265 2.16zM153.285 231.855c-1.92 0-3.84-0.735-5.31-2.19-1.356-1.358-2.194-3.232-2.194-5.302s0.838-3.945 2.194-5.303v0l56.49-56.49c1.358-1.356 3.232-2.194 5.302-2.194s3.945 0.838 5.303 2.194v0c1.356 1.358 2.194 3.232 2.194 5.302s-0.838 3.945-2.194 5.303v0l-56.49 56.49c-1.455 1.455-3.375 2.19-5.295 2.19z"></path>
</symbol>
<symbol id="svgicon-pie" viewBox="0 0 300 300">
<path fill="#44454a" style="fill: var(--color3, #44454a)" d="M264.615 207.045c-4.145-0.005-7.503-3.367-7.503-7.512 0-1.052 0.216-2.053 0.606-2.962l-0.019 0.049c2.761-6.297 5.113-13.697 6.685-21.381l0.125-0.729c0.766-3.39 3.753-5.883 7.321-5.883 4.141 0 7.497 3.357 7.497 7.497 0 0.469-0.043 0.927-0.125 1.372l0.007-0.046c-1.937 9.529-4.598 17.902-8.033 25.862l0.323-0.842c-1.185 2.865-3.96 4.575-6.885 4.575zM151.77 281.82c-71.67 0-129.99-58.305-129.99-129.99 0-61.92 44.025-115.56 104.685-127.53 4.050-0.81 8.010 1.845 8.805 5.91 0.090 0.436 0.141 0.936 0.141 1.449 0 3.629-2.578 6.656-6.003 7.348l-0.048 0.008c-53.655 10.59-92.595 58.020-92.595 112.815 0 63.405 51.585 114.99 114.99 114.99 0.016 0 0.036 0 0.055 0 32.291 0 61.468-13.33 82.329-34.788l0.026-0.027c2.46-2.52 4.83-5.19 7.035-7.92 1.384-1.704 3.479-2.784 5.826-2.784 1.795 0 3.443 0.632 4.732 1.685l-0.013-0.011c1.704 1.384 2.784 3.479 2.784 5.826 0 1.795-0.632 3.443-1.685 4.732l0.011-0.013c-2.657 3.27-5.256 6.188-7.979 8.985l0.029-0.030c-2.37 2.43-4.86 4.8-7.41 7.035-23.67 20.835-54.12 32.31-85.725 32.31z"></path>
<path fill="#ffd833" style="fill: var(--color4, #ffd833)" d="M273.705 140.175c-5.535-58.71-52.515-105.36-111.375-110.385v110.385h111.375z"></path>
<path fill="#44454a" style="fill: var(--color3, #44454a)" d="M273.705 147.675h-111.375c-4.14 0-7.5-3.36-7.5-7.5v-110.385c0-2.1 0.885-4.11 2.43-5.52 1.327-1.226 3.109-1.978 5.066-1.978 0.229 0 0.454 0.010 0.678 0.030l-0.029-0.002c62.595 5.34 112.305 54.615 118.2 117.15 0.195 2.1-0.495 4.185-1.92 5.745-1.372 1.513-3.345 2.46-5.539 2.46-0.004 0-0.007 0-0.011 0h0.001zM169.83 132.675h95.34c-8.13-48.69-46.56-86.76-95.34-94.425v94.425z"></path>
</symbol>
<symbol id="svgicon-diary-page" viewBox="0 0 300 300">
<path fill="#14a9a2" style="fill: var(--color5, #14a9a2)" d="M166 38v66c0 11 9 21 20 21h65v119c0 10-8 19-18 19h-166c-10 0-18-8-18-19v-188c0-10 8-19 18-19h99zM177 198h-87c-6 1-10 5-10 11s5 11 11 11h87c5-1 9-5 9-11 1-6-4-11-10-11zM139 145h-49c-6 0-10 5-10 10 0 6 5 11 11 11h49c5-1 9-5 9-11 1-6-4-10-10-10zM187 38l59 65h-59v-65z"></path>
</symbol>
<symbol id="svgicon-bookswithbg" viewBox="0 0 300 300">
<path fill="#a2f0ed" style="fill: var(--color6, #a2f0ed)" d="M300 150c0 82.843-67.157 150-150 150s-150-67.157-150-150c0-82.843 67.157-150 150-150s150 67.157 150 150z"></path>
<path fill="#14a9a2" style="fill: var(--color5, #14a9a2)" d="M202.879 142.19h-102.653c-1.764-0.042-3.415-0.483-4.881-1.234l0.064 0.030c-0.527-0.282-12.834-7.095-12.834-26.948s12.307-26.665 12.815-26.948c1.404-0.712 3.053-1.151 4.8-1.204l0.018-0h102.672c0.149-0.022 0.32-0.035 0.495-0.035 1.944 0 3.519 1.576 3.519 3.519 0 1.442-0.867 2.682-2.109 3.225l-0.023 0.009c-0.113 0-13.173 8.054-13.399 21.49s13.173 21.302 13.361 21.378c1.344 0.509 2.282 1.786 2.282 3.282 0 1.933-1.567 3.5-3.5 3.5-0.235 0-0.464-0.023-0.686-0.067l0.022 0.004zM86.394 202.409h102.653c1.766-0.049 3.417-0.495 4.881-1.253l-0.063 0.030c0.527-0.282 12.834-7.076 12.834-26.948s-12.307-26.703-12.872-26.985c-1.403-0.714-3.053-1.153-4.801-1.204l-0.017-0h-102.616c-0.128-0.016-0.277-0.026-0.427-0.026-1.954 0-3.538 1.584-3.538 3.538 0 1.427 0.845 2.656 2.061 3.216l0.022 0.009c0.132 0 13.173 8.035 13.399 21.472s-13.229 21.302-13.229 21.453c-1.303 0.536-2.203 1.794-2.203 3.264 0 1.944 1.576 3.519 3.519 3.519 0.2 0 0.396-0.017 0.587-0.049l-0.021 0.003z"></path>
</symbol>
<symbol id="svgicon-penwithpaper" viewBox="0 0 271 300">
<path fill="#ffe9cc" style="fill: var(--color7, #ffe9cc)" d="M237.934 10.345c-0.022-5.704-4.64-10.323-10.343-10.345h-160.347v51.724c0 5.713-4.632 10.345-10.345 10.345v0h-56.897v227.586c0.022 5.704 4.64 10.323 10.343 10.345h217.243c5.704-0.022 10.323-4.64 10.345-10.343v-0.002z"></path>
<path fill="#939598" style="fill: var(--color8, #939598)" d="M79.263 272.476l7.306-51.207 32.922 10.991 10.991 32.916z"></path>
<path fill="#ffe2bd" style="fill: var(--color9, #ffe2bd)" d="M67.244 300h160.345c5.713 0 10.345-4.632 10.345-10.345v0-149.528c-28.775 77.268-91.14 136.080-168.855 159.4l-1.835 0.473z"></path>
<path fill="#acabb1" style="fill: var(--color10, #acabb1)" d="M196.302 111.543l14.625-14.625 43.894 43.888-14.631 14.631z"></path>
<path fill="#c6c5ca" style="fill: var(--color11, #c6c5ca)" d="M236.867 80.69c-1.929 0.193-3.686 0.539-5.38 1.035l0.207-0.052c-5.286 1.537-9.816 4.277-13.448 7.913l-0 0-7.293 7.345 43.862 43.862 7.293-7.293c5.619-5.617 9.094-13.377 9.094-21.949 0-17.14-13.895-31.034-31.034-31.034-1.154 0-2.293 0.063-3.414 0.186l0.139-0.012z"></path>
<path fill="#ffd733" style="fill: var(--color12, #ffd733)" d="M196.328 111.517l-109.759 109.759 29.295 14.619 6.601 13.203 8.043 16.034 109.7-109.694-8.496-8.496zM196.8 154.933l7.319-7.313z"></path>
<path fill="#ffa993" style="fill: var(--color13, #ffa993)" d="M67.244 51.724v-51.724l-67.241 62.069h56.897c5.713 0 10.345-4.632 10.345-10.345v0z"></path>
<path fill="#f1f2f2" style="fill: var(--color14, #f1f2f2)" d="M129.707 227.205c-2.847-0.012-5.151-2.323-5.151-5.172 0-1.433 0.582-2.729 1.523-3.666l55.507-55.487c0.953-1.083 2.342-1.763 3.889-1.763 2.857 0 5.172 2.316 5.172 5.172 0 1.545-0.677 2.931-1.75 3.879l-0.006 0.005-55.494 55.513c-0.936 0.939-2.231 1.52-3.662 1.52-0.011 0-0.021 0-0.031 0h0.002z"></path>
<path fill="#f1f2f2" style="fill: var(--color14, #f1f2f2)" d="M199.826 157.112c-2.856-0.001-5.17-2.317-5.17-5.172 0-1.429 0.58-2.723 1.517-3.659v0l7.313-7.332c0.902-0.784 2.088-1.262 3.386-1.262 2.857 0 5.172 2.316 5.172 5.172 0 1.3-0.479 2.487-1.271 3.396l0.005-0.006-7.293 7.313c-0.932 0.95-2.225 1.542-3.658 1.552h-0.002z"></path>
<path fill="#ff7956" style="fill: var(--color15, #ff7956)" d="M144.83 139.655h-108.621c-2.857 0-5.172-2.316-5.172-5.172s2.316-5.172 5.172-5.172v0h108.621c2.857 0 5.172 2.316 5.172 5.172s-2.316 5.172-5.172 5.172v0z"></path>
<path fill="#ff7956" style="fill: var(--color15, #ff7956)" d="M113.796 170.69h-77.586c-2.857 0-5.172-2.316-5.172-5.172s2.316-5.172 5.172-5.172v0h77.586c2.857 0 5.172 2.316 5.172 5.172s-2.316 5.172-5.172 5.172v0z"></path>
<path fill="#ff7956" style="fill: var(--color15, #ff7956)" d="M82.761 201.724h-46.552c-2.857 0-5.172-2.316-5.172-5.172s2.316-5.172 5.172-5.172v0h46.552c2.857 0 5.172 2.316 5.172 5.172s-2.316 5.172-5.172 5.172v0z"></path>
<path fill="#ff7956" style="fill: var(--color15, #ff7956)" d="M175.865 108.621h-98.276c-2.857 0-5.172-2.316-5.172-5.172s2.316-5.172 5.172-5.172v0h98.276c2.857 0 5.172 2.316 5.172 5.172s-2.316 5.172-5.172 5.172v0z"></path>
<path fill="#ff7956" style="fill: var(--color15, #ff7956)" d="M56.899 108.621h-20.69c-2.857 0-5.172-2.316-5.172-5.172s2.316-5.172 5.172-5.172v0h20.69c2.857 0 5.172 2.316 5.172 5.172s-2.316 5.172-5.172 5.172v0z"></path>
</symbol>
<symbol id="svgicon-speech-bubble" viewBox="0 0 318 300">
<path fill="#eeefee" style="fill: var(--color16, #eeefee)" d="M258.578 97.229c0 53.697-57.87 97.195-129.289 97.195-0.227 0.001-0.497 0.002-0.766 0.002-20.127 0-39.406-3.633-57.216-10.28l1.131 0.37c-40.664 29.503-69.526 18.672-69.526 18.672 14.122-9.84 24.906-23.594 30.868-39.688l0.188-0.578c-21.098-17.294-33.967-40.344-33.967-65.693 0-53.727 57.88-97.234 129.289-97.234s129.289 43.507 129.289 97.234z"></path>
<path fill="#575b6d" style="fill: var(--color17, #575b6d)" d="M79.221 97.2c0 0.011 0 0.025 0 0.039 0 8.147-6.604 14.752-14.752 14.752s-14.752-6.604-14.752-14.752c0-8.147 6.604-14.752 14.752-14.752v0c8.125 0.022 14.708 6.591 14.752 14.708v0.004z"></path>
<path fill="#575b6d" style="fill: var(--color17, #575b6d)" d="M144.060 97.2c0 0.011 0 0.025 0 0.039 0 8.147-6.604 14.752-14.752 14.752s-14.752-6.604-14.752-14.752c0-8.147 6.604-14.752 14.752-14.752v0c8.125 0.022 14.708 6.591 14.752 14.708v0.004z"></path>
<path fill="#575b6d" style="fill: var(--color17, #575b6d)" d="M208.889 97.2c0 0.011 0 0.025 0 0.039 0 8.147-6.604 14.752-14.752 14.752s-14.752-6.604-14.752-14.752c0-8.133 6.582-14.729 14.711-14.752h0.002c0.014 0 0.031 0 0.049 0 8.131 0 14.725 6.584 14.742 14.711v0.001z"></path>
<path fill="#f6c863" style="fill: var(--color18, #f6c863)" d="M104.542 210.797c0 44.439 47.826 80.347 106.89 80.347 0.192 0.001 0.418 0.001 0.645 0.001 16.632 0 32.563-3.004 47.28-8.498l-0.934 0.306c33.618 24.388 57.482 15.441 57.482 15.441-11.699-8.121-20.633-19.491-25.573-32.802l-0.155-0.477c17.469-14.305 28.144-33.366 28.144-54.348 0-44.429-47.855-80.396-106.89-80.396s-106.89 35.967-106.89 80.386z"></path>
<path fill="#575b6d" style="fill: var(--color17, #575b6d)" d="M277.522 210.787c0 6.77-5.488 12.257-12.257 12.257s-12.257-5.488-12.257-12.257c0-6.77 5.488-12.257 12.257-12.257s12.257 5.488 12.257 12.257z"></path>
<path fill="#575b6d" style="fill: var(--color17, #575b6d)" d="M223.689 210.787c0 6.77-5.488 12.257-12.257 12.257s-12.257-5.488-12.257-12.257c0-6.77 5.488-12.257 12.257-12.257s12.257 5.488 12.257 12.257z"></path>
<path fill="#575b6d" style="fill: var(--color17, #575b6d)" d="M169.856 210.787c0 6.77-5.488 12.257-12.257 12.257s-12.257-5.488-12.257-12.257c0-6.77 5.488-12.257 12.257-12.257s12.257 5.488 12.257 12.257z"></path>
</symbol>
<symbol id="svgicon-datawithbg" viewBox="0 0 300 300">
<path fill="#ffd9cb" style="fill: var(--color19, #ffd9cb)" d="M300 150c0 82.843-67.157 150-150 150s-150-67.157-150-150c0-82.843 67.157-150 150-150s150 67.157 150 150z"></path>
<path fill="#eb571b" style="fill: var(--color20, #eb571b)" d="M138.417 59.87h24.87c0.315-0.035 0.681-0.054 1.051-0.054 1.605 0 3.124 0.372 4.475 1.034l-0.060-0.027c1.136 0.623 2.044 1.54 2.641 2.648l0.017 0.035c0.636 1.28 1.009 2.788 1.009 4.383 0 0.372-0.020 0.74-0.060 1.102l0.004-0.045v142.303c0.035 0.317 0.056 0.685 0.056 1.057 0 1.595-0.372 3.103-1.035 4.442l0.026-0.059c-0.613 1.143-1.521 2.059-2.624 2.666l-0.034 0.017c-1.298 0.618-2.821 0.979-4.428 0.979-0.365 0-0.726-0.019-1.082-0.055l0.045 0.004h-24.87c-0.317 0.034-0.685 0.054-1.058 0.054-1.581 0-3.079-0.352-4.421-0.983l0.064 0.027c-1.133-0.637-2.046-1.549-2.665-2.648l-0.018-0.035c-0.632-1.304-1.002-2.836-1.002-4.455 0-0.356 0.018-0.708 0.053-1.054l-0.004 0.044v-142.303c-0.033-0.31-0.052-0.67-0.052-1.034 0-1.6 0.361-3.115 1.006-4.469l-0.027 0.063c0.637-1.141 1.559-2.055 2.672-2.665l0.035-0.018c1.279-0.635 2.786-1.006 4.379-1.006 0.365 0 0.726 0.020 1.081 0.057l-0.044-0.004z"></path>
<path fill="#eb571b" style="fill: var(--color20, #eb571b)" d="M85.843 114.85h26.375c0.322-0.035 0.696-0.054 1.074-0.054 1.64 0 3.193 0.371 4.581 1.035l-0.064-0.028c1.136 0.623 2.044 1.54 2.641 2.648l0.017 0.035c0.653 1.315 1.035 2.864 1.035 4.502 0 0.383-0.021 0.762-0.062 1.135l0.004-0.046v86.946c0.033 0.313 0.052 0.676 0.052 1.044 0 1.653-0.38 3.217-1.057 4.61l0.028-0.063c-0.612 1.182-1.551 2.121-2.698 2.716l-0.035 0.016c-1.315 0.653-2.864 1.035-4.502 1.035-0.383 0-0.762-0.021-1.135-0.062l0.046 0.004h-26.3c-0.288 0.028-0.622 0.044-0.961 0.044-1.646 0-3.204-0.377-4.593-1.049l0.063 0.028c-1.182-0.612-2.121-1.551-2.716-2.698l-0.016-0.035c-0.65-1.33-1.029-2.894-1.029-4.547 0-0.368 0.019-0.731 0.055-1.089l-0.004 0.045v-86.896c-0.046-0.372-0.072-0.802-0.072-1.239 0-1.596 0.35-3.109 0.977-4.469l-0.028 0.066c0.652-1.161 1.623-2.076 2.795-2.641l0.038-0.016c1.33-0.65 2.894-1.029 4.547-1.029 0.368 0 0.731 0.019 1.089 0.055l-0.045-0.004z"></path>
<path fill="#eb571b" style="fill: var(--color20, #eb571b)" d="M187.732 129.141h29.885c0.252-0.025 0.544-0.040 0.839-0.040 1.342 0 2.614 0.301 3.752 0.84l-0.053-0.023c0.943 0.519 1.697 1.281 2.192 2.202l0.014 0.029c0.521 1.062 0.826 2.312 0.826 3.633 0 0.319-0.018 0.634-0.052 0.943l0.004-0.038v76.091c0.027 0.258 0.043 0.558 0.043 0.861 0 1.335-0.302 2.6-0.843 3.729l0.023-0.052c-0.516 0.945-1.268 1.705-2.178 2.217l-0.028 0.014c-1.084 0.516-2.356 0.817-3.698 0.817-0.296 0-0.588-0.015-0.876-0.043l0.036 0.003h-29.885c-0.264 0.028-0.571 0.044-0.881 0.044-1.346 0-2.621-0.303-3.76-0.844l0.053 0.023c-0.938-0.526-1.69-1.286-2.192-2.202l-0.015-0.029c-0.534-1.073-0.847-2.338-0.847-3.675 0-0.304 0.016-0.604 0.048-0.9l-0.003 0.037v-76.091c-0.026-0.249-0.040-0.538-0.040-0.831 0-1.348 0.311-2.623 0.865-3.758l-0.022 0.051c0.509-0.951 1.263-1.712 2.178-2.217l0.028-0.014c1.087-0.519 2.361-0.821 3.707-0.821 0.31 0 0.617 0.016 0.919 0.047l-0.038-0.003z"></path>
</symbol>
<symbol id="svgicon-databoard" viewBox="0 0 305 300">
<path fill="#575b6d" style="fill: var(--color17, #575b6d)" d="M17.778 0.001h269.747c9.819 0 17.778 7.96 17.778 17.778v177.727c0 9.819-7.96 17.778-17.778 17.778h-269.747c-9.819 0-17.778-7.96-17.778-17.778v-177.727c0-9.819 7.96-17.778 17.778-17.778z"></path>
<path fill="#eeefee" style="fill: var(--color16, #eeefee)" d="M17.778 14.708h269.756c0 0 0 0 0 0 1.691 0 3.062 1.371 3.062 3.062 0 0.003 0 0.006 0 0.010v-0.001 177.727c0 1.696-1.375 3.072-3.072 3.072h-269.747c-1.696 0-3.072-1.375-3.072-3.072v0-177.727c0-1.696 1.375-3.072 3.072-3.072v0z"></path>
<path fill="#f6b863" style="fill: var(--color21, #f6b863)" d="M122.913 226.819l-0.829 2.094-2.792 7.121-23.084 58.827c-1.183 3.004-4.060 5.092-7.424 5.092-0.031 0-0.061-0-0.092-0.001h0.005c-0.005 0-0.010 0-0.016 0-0.901 0-1.77-0.136-2.587-0.389l0.062 0.016c-3.217-1.104-5.488-4.103-5.488-7.632 0-0.933 0.159-1.829 0.451-2.663l-0.017 0.057c0.047-0.14 0.102-0.279 0.158-0.419l20.98-52.925 2.867-7.111 0.829-2.094z"></path>
<path fill="#f6b863" style="fill: var(--color21, #f6b863)" d="M224.621 291.947c0 0.008 0 0.018 0 0.028 0 4.436-3.596 8.033-8.033 8.033-3.395 0-6.298-2.106-7.474-5.083l-0.019-0.054-26.705-68.042h17.052l0.829 2.094 2.792 7.13 20.99 52.916c0.358 0.882 0.567 1.906 0.568 2.978v0.001z"></path>
<path fill="#f6b863" style="fill: var(--color21, #f6b863)" d="M160.759 226.819v55.774c-0.032 4.438-3.637 8.024-8.079 8.024 0 0 0 0-0 0h-0.028c-4.425-0.011-8.009-3.598-8.014-8.023v-55.774z"></path>
<path fill="#f6b863" style="fill: var(--color21, #f6b863)" d="M229.583 221.104c0 4.318-3.501 7.819-7.819 7.819v0h-138.215c-4.318 0-7.819-3.501-7.819-7.819s3.501-7.819 7.819-7.819v0h138.206c4.32 0 7.823 3.5 7.828 7.818v0.001z"></path>
<path fill="#eaa14e" style="fill: var(--color22, #eaa14e)" d="M105.106 228.913h16.978l-2.792 7.121h-17.052z"></path>
<path fill="#eaa14e" style="fill: var(--color22, #eaa14e)" d="M144.6 228.913h16.159v7.121h-16.159z"></path>
<path fill="#eaa14e" style="fill: var(--color22, #eaa14e)" d="M203.055 236.034h-17.043l-2.792-7.121h17.043z"></path>
<path fill="#ef5261" style="fill: var(--color23, #ef5261)" d="M203.241 142.712l-20.422-23.782-20.859 20.859-9.001-8.992 30.549-30.577 20.478 23.819 64.011-63.742 8.982 9.010z"></path>
<path fill="#dbd8dd" style="fill: var(--color24, #dbd8dd)" d="M35.017 30.159h140.309v7.819h-140.309z"></path>
<path fill="#dbd8dd" style="fill: var(--color24, #dbd8dd)" d="M35.017 52.135h140.309v7.809h-140.309z"></path>
<path fill="#dbd8dd" style="fill: var(--color24, #dbd8dd)" d="M35.017 74.13h78.029v7.838h-78.029z"></path>
<path fill="#dbd8dd" style="fill: var(--color24, #dbd8dd)" d="M35.017 118.129h78.029v8.926h-78.029z"></path>
<path fill="#dbd8dd" style="fill: var(--color24, #dbd8dd)" d="M35.017 143.205h78.029v8.936h-78.029z"></path>
<path fill="#dbd8dd" style="fill: var(--color24, #dbd8dd)" d="M35.017 168.29h237.132v8.936h-237.132z"></path>
</symbol>
<symbol id="svgicon-peoplewithhourglass" viewBox="0 0 342 300">
<path fill="#dfebfd" style="fill: var(--color25, #dfebfd)" d="M273.658 99.285c-0.44-7.805-13.394-8.13-13.394-8.13s-11.189 11.134-13.715 10.921 7.707-11.387 7.707-11.387c-4.677-1.467-18.056 1.809-18.056 1.809s-2.415 15.237-4.811 14.41 2.828-13.381 2.828-13.381c-4.907 0.408-10.352 4.89-10.352 4.89-7.228 7.63 2.936 16.525 2.936 16.525s-0.95 5.262-5.449 10.579v0c-0.757 0.798-1.449 1.675-2.058 2.61l-0.043 0.071 1.257 0.266q0.262-0.474 0.548-0.906v0-0.002c0.127-0.176 0.308-0.425 0.533-0.731v0c0.544-0.672 0.921-1.172 1.169-1.539v0c1.652-2.126 3.961-4.847 5.202-5.258-0.072-0.186-0.124-0.403-0.146-0.628l-0.001-0.010 0.147 0.638c1.18 5.068 11.785 8.113 18.044 8.149s4.001-2.207 1.35-5.636-9.567-4.135-11.342-5.634 1.378-1.958 5.315-0.806 5.090 5.574 11.421 7.554 13.819-9.142 13.819-9.142c-4.754 0.442-12.233-3.708-12.214-5.315s11.827 1.063 13.77 0.98 5.981-3.091 5.534-10.898z"></path>
<path fill="#afcdfb" style="fill: var(--color26, #afcdfb)" opacity="0.5" d="M231.312 81.705s7.794-27.968 25.015-42.722c2.29-1.96 5.781 0.051 5.26 3.019-0.005 0.056-0.014 0.107-0.029 0.156l0.001-0.006c-0.965 5.045-20.618 23.967-30.247 39.553z"></path>
<path fill="#afcdfb" style="fill: var(--color26, #afcdfb)" opacity="0.5" d="M228.287 89.588s20.040-33.379 47.317-45.284c1.663-0.727 3.661-0.062 4.45 1.573 0.512 1.063 0.578 2.615-0.525 4.85-2.947 5.953-33.912 22.765-51.241 38.862z"></path>
<path fill="#afcdfb" style="fill: var(--color26, #afcdfb)" opacity="0.5" d="M225.125 230.773s30.415-15.246 35.93-9.935-35.93 9.935-35.93 9.935z"></path>
<path fill="#afcdfb" style="fill: var(--color26, #afcdfb)" opacity="0.5" d="M220.176 232.587s40.726-3.572 41.364 4.913-41.364-4.913-41.364-4.913z"></path>
<path fill="#dfebfd" style="fill: var(--color25, #dfebfd)" d="M79.82 53.26c5.194-16.015 32.335-9.597 32.335-9.597s17.204 29.318 22.581 30.26-9.814-27.938-9.814-27.938c10.532-0.5 36.617 13.662 36.617 13.662s-3.323 33.055 2.126 32.645 1.443-29.42 1.443-29.42c9.992 3.542 18.883 15.843 18.883 15.843 10.887 19.855-15.171 32.813-15.171 32.813s-0.904 11.481 5.551 25.017v0s1.488 2.513 2.908 6.733l-2.764-0.136c-0.189-0.753-0.402-1.488-0.638-2.183 0.001-0.002 0.002-0.004 0.002-0.006s-0.001-0.005-0.002-0.006v0c-0.004-0.008-0.008-0.018-0.011-0.029l-0-0.001c-0.168-0.438-0.412-1.063-0.714-1.816v0c-0.763-1.701-1.276-2.945-1.592-3.844v0c-2.277-5.315-5.594-12.261-7.956-13.8 0.256-0.357 0.477-0.766 0.642-1.203l0.012-0.037-0.655 1.24c-5.232 9.911-28.986 10.441-42.042 7.088s-7.122-6.79 0.274-12.48 22.181-3.387 26.694-5.534-1.796-4.835-10.63-4.59-13.653 8.821-27.923 9.478-23.769-26.592-23.769-26.592c9.657 3.525 27.507-1.020 28.351-4.369s-25.213-4.307-29.222-5.502-10.713-9.68-5.517-25.695z"></path>
<path fill="#dfebfd" style="fill: var(--color25, #dfebfd)" d="M266.026 174.102c-2.585-9.548-18.696-6.572-18.696-6.572s-10.938 16.706-14.119 17.104 6.563-16.109 6.563-16.109c-6.166-0.597-21.879 6.961-21.879 6.961s0.995 19.492-2.188 19.094 0-17.304 0-17.304c-5.966 1.799-11.534 8.751-11.534 8.751-6.963 11.338 7.956 19.689 7.956 19.689s0.198 6.763-3.978 14.519v0c-0.688 1.101-1.327 2.374-1.847 3.707l-0.054 0.158h1.629q0.198-0.653 0.44-1.263v0-0.017c0.11-0.253 0.272-0.61 0.472-1.046v0c0.497-0.971 0.833-1.701 1.046-2.209v0c1.488-3.053 3.633-7.033 5.064-7.866-0.14-0.215-0.258-0.462-0.342-0.724l-0.006-0.022c0.113 0.238 0.227 0.487 0.349 0.746 2.785 5.966 16.706 6.961 24.464 5.37s4.375-3.78 0.198-7.331-12.928-2.615-15.52-4.008 1.195-2.783 6.365-2.385 7.756 5.568 16.109 6.363 14.718-14.916 14.718-14.916c-5.768 1.79-16.111-1.39-16.508-3.38s14.916-1.79 17.304-2.385 6.58-5.377 3.995-14.925z"></path>
<path fill="#cde0fb" style="fill: var(--color27, #cde0fb)" d="M99.073 162.936c5.73-10.843 24.42-2.857 24.42-2.857s8.691 23.184 12.435 24.549-3.561-21.288-3.561-21.288c7.626 0.954 24.592 14.38 24.592 14.38s-6.508 23.325-2.551 23.709 4.709-20.948 4.709-20.948c6.735 3.791 11.583 13.734 11.583 13.734 5.336 15.622-14.991 21.671-14.991 21.671s-2.079 8.132 0.865 18.66v0c0.528 1.481 0.964 3.234 1.231 5.043l0.019 0.156-1.971-0.442c-0.042-0.565-0.104-1.116-0.189-1.65v0-0.023c-0.066-0.336-0.164-0.812-0.287-1.392v0c-0.338-1.312-0.548-2.275-0.663-2.96v0c-0.971-4.103-2.485-9.503-3.991-10.904 0.237-0.235 0.444-0.501 0.615-0.79l0.010-0.018c-0.2 0.257-0.406 0.527-0.625 0.808-4.994 6.467-22.111 3.882-31.076-0.155s-4.269-5.766 1.754-8.929 16.371 0.353 19.87-0.638-0.687-3.695-7.054-4.622-10.907 4.63-21.235 3.321-13.758-22.064-13.758-22.064c6.495 3.738 19.881 2.7 20.903 0.4s-17.57-6.227-20.297-7.598-6.497-8.298-0.757-19.151z"></path>
<path fill="#d9e8fa" style="fill: var(--color28, #d9e8fa)" d="M93.83 251.508c-3.030-6.565 7.405-12.45 7.405-12.45s13.972 4.235 15.945 2.966-11.238-5.953-11.238-5.953c3.176-3.227 15.533-6.361 15.533-6.361s8.587 11.398 10.186 9.682-8.119-9.703-8.119-9.703c4.186-1.796 10.575-0.506 10.575-0.506 9.223 3.093 4.777 14.776 4.777 14.776s3.062 3.884 9.042 6.274v0c1.112 0.376 2.064 0.807 2.964 1.319l-0.083-0.044-0.912 0.763c-0.281-0.183-0.559-0.351-0.85-0.502h-0.013c-0.179-0.089-0.438-0.213-0.753-0.366v0c-0.734-0.313-1.261-0.559-1.622-0.751v0c-2.266-1.014-5.336-2.239-6.531-2.035-0.028-0.217-0.082-0.413-0.161-0.597l0.006 0.015c0.051 0.185 0.102 0.381 0.155 0.582 1.237 4.652-6.102 11.742-11.2 14.489s-4.227-0.066-3.548-4.018 6.023-7.53 6.818-9.525-1.975-1.001-4.677 1.648-1.737 6.761-6.049 11.128-15.252-1.46-15.252-1.46c4.075-1.701 8.381-8.338 7.671-9.642s-9.204 5.995-10.824 6.78-6.217 0.053-9.244-6.51z"></path>
<path fill="#ffb27d" style="fill: var(--color29, #ffb27d)" d="M61.017 210.822s3.442 0.396 6.104 0.236c3.331-0.2 7.441-0.283 8.2 0.604s0.761 0.889-0.719 1.669c-1.152 0.608-5.594 2.566-8.595 1.639s-6.833-0.74-6.833-0.74z"></path>
<path fill="#7aa9e2" style="fill: var(--color30, #7aa9e2)" d="M24.275 178.050s6.41 31.75 14.032 34.174c3.763 1.197 20.221 3.436 25.053 3.472 0 0 1.12-1.027 0.602-4.89 0 0-17.414-5.243-20.038-8.504-3.906-4.85 1.005-20.822-3.799-25.3s-12.531-6.095-15.85 1.048z"></path>
<path fill="#96c1ed" style="fill: var(--color31, #96c1ed)" d="M27.324 241.75h0.927c0.93 0 1.684 0.754 1.684 1.684v51.25c0 0.93-0.754 1.684-1.684 1.684h-0.927c-0.93 0-1.684-0.754-1.684-1.684v-51.25c0-0.93 0.754-1.684 1.684-1.684z"></path>
<path fill="#96c1ed" style="fill: var(--color31, #96c1ed)" d="M8.527 299.958c2.018-4.178 9.875-7.294 19.257-7.294s17.24 3.117 19.26 7.294z"></path>
<path fill="#96c1ed" style="fill: var(--color31, #96c1ed)" d="M13.656 283.588h28.261c0.298 0 0.54 0.242 0.54 0.54v1.12c0 0.298-0.242 0.54-0.54 0.54h-28.261c-0.298 0-0.54-0.242-0.54-0.54v-1.12c0-0.298 0.242-0.54 0.54-0.54z"></path>
<path fill="#163560" style="fill: var(--color32, #163560)" d="M25.285 236.773c1.455 2.403 2.91 4.462 4.492 6.413l-0.083-0.105c4.85 6.123 10.131 11.17 11.055 15.945 0.242 1.192 0.535 2.216 0.899 3.206l-0.048-0.151c0.385 1.093 0.85 2.241 1.407 3.429 2.058 4.465 5.137 9.482 8.211 14.032 5.315 7.866 10.307 14.44 10.307 14.44l9.161-0.391c-0.366-0.918-4.363-11.787-9.708-25.070l-18.613-46.247s-20.061-7.6-22.145-2.677c-1.724 4.061-0.323 8.041 5.064 17.176z"></path>
<path fill="#163560" style="fill: var(--color32, #163560)" d="M61.808 292.328s0.468 7.56 1.93 7.668c0.196 0.015 7.418 0.015 7.418 0.015l9.223-0.053s-0.062-2.222-2.764-2.692-7.205-2.368-8.832-5.927c-1.718-3.759-6.976 0.988-6.976 0.988z"></path>
<path fill="#163560" style="fill: var(--color32, #163560)" d="M40.594 270.721s-6.378 4.095-5.755 5.423c0.083 0.179 3.604 6.484 3.604 6.484l4.541 8.026s1.913-1.135 1.005-3.718-1.448-7.441 0.865-10.607c2.436-3.327-4.261-5.609-4.261-5.609z"></path>
<path fill="#1c468a" style="fill: var(--color33, #1c468a)" d="M49.575 218.893s27.154 19.504 30.117 25.632c2.309 4.786-34.582 35.205-34.582 35.205s-5.375-5.315-6.078-7.9c0 0 12.712-18.265 22.782-24.194 2.998-1.767-35.951-6.076-40.167-12.635s-1.892-15.244-1.892-15.244z"></path>
<path fill="#ee9849" style="fill: var(--color34, #ee9849)" d="M49.443 247.615h-43.607c-3.223 0-5.836-2.613-5.836-5.836v-0.944c0-3.224 2.614-5.838 5.838-5.838v0h43.605c3.222 0.004 5.833 2.616 5.834 5.838v0 0.942c0 3.223-2.611 5.836-5.834 5.838h-0z"></path>
<path fill="#ffb27d" style="fill: var(--color29, #ffb27d)" d="M37.571 163.703c1.506 0.938 2.778 2.095 3.813 3.442l0.025 0.034c-6.034 1.561-16.032-4.039-16.032-4.039s3.882-2.609 5.315-8.341c0.072-0.289 0.138-0.587 0.198-0.889 0.188-0.934 0.306-2.017 0.325-3.124l0-0.016 2.764 2.483 4.607 4.127c-0.154 1.77-0.394 3.362-0.727 4.919l0.046-0.259c-0.087 0.521-0.202 1.071-0.334 1.663z"></path>
<path fill="#b0d4ff" style="fill: var(--color35, #b0d4ff)" d="M49.977 217.83c-0.018 0.076-0.036 0.139-0.057 0.2l0.004-0.013c-0.58 1.631-9.354 7.165-15.29 9.354-3.701 1.373-16.545 4.441-17.389 1.799-0.98-3.062 2.609-25.376 1.743-36.993-1.018-14.206 2.915-27.137 8.383-31.359 0.413-0.304 1.231 0.504 3.599 1.629 2.196 1.044 4.605 1.333 6.661 0.884l1.833 1.575c2.539 2.279 5.315 5.392 6.591 10.16 0.772 2.928 1.356 7.558 1.79 12.756 0.166 2.018 0.313 4.122 0.425 6.246 0.196 3.385 0.366 6.803 0.449 10.046v0.302c0.034 0.33 0.040 0.687 0.042 1.014s0.019 0.655 0.025 0.978c0.059 2.539 0.057 4.89 0.144 6.937 0.030 0.848 0.2 1.647 0.487 2.389l-0.017-0.050c0.213 0.595 0.461 1.031 0.559 1.45 0.031 0.115 0.049 0.248 0.049 0.384 0 0.11-0.012 0.217-0.034 0.321l0.002-0.010z"></path>
<path fill="#ed975d" style="fill: var(--color36, #ed975d)" d="M38.6 157.387c-0.154 1.77-0.394 3.362-0.727 4.919l0.046-0.259c-4.501-1.454-6.542-5.528-7.228-7.241-0.088-0.203-0.183-0.465-0.264-0.733l-0.014-0.056 0.476-0.1c0.638-0.136 1.822-0.389 3.098-0.657z"></path>
<path fill="#ffb27d" style="fill: var(--color29, #ffb27d)" d="M39.969 158.841s-9.946-0.253-9.693-6.444-0.861-10.392 5.5-10.492 7.496 2.311 7.915 4.399-1.133 12.442-3.723 12.537z"></path>
<path fill="#1c468a" style="fill: var(--color33, #1c468a)" d="M75.579 212.134l7.361-22.656 0.865 0.281-7.361 22.656-0.865-0.281z"></path>
<path fill="#1c468a" style="fill: var(--color33, #1c468a)" d="M51.428 211.885l0.032-1.494 24.994 0.532-0.032 1.494-24.994-0.532z"></path>
<path fill="#2c3a64" style="fill: var(--color37, #2c3a64)" d="M29.044 140.889c-0.062-0.104-0.23-0.213-0.638-0.302 0.166-0.060 0.357-0.095 0.556-0.095 0.083 0 0.165 0.006 0.244 0.018l-0.009-0.001c0.183-0.544 0.657-1.488 1.665-1.554-0.351 0.134-0.621 0.413-0.739 0.761l-0.003 0.009c1.32-0.95 3.863-1.361 10.396 0.338 8.612 2.239 4.741 7.32 3.493 7.786s-3.772-1.867-5.908-2.073-3.076 2.764-3.865 3.057-0.376-0.398-1.265-1.005-1.276 0.978-1.172 2.069-1.488 2.23-1.488 2.23l-1.086-1.684c-1.086-1.684-1.276-8.034-0.425-9.231z"></path>
<path fill="#91b8ef" style="fill: var(--color38, #91b8ef)" d="M49.407 215.695c-2.415-0.391-8.379-1.586-12.709-4.297-7.815-4.89-12.422-29.72-12.422-29.72l12.242 15.677 12.259 8.972 0.015 0.091c0.059 2.539 0.057 4.89 0.144 6.937 0.030 0.848 0.201 1.648 0.489 2.388l-0.017-0.050z"></path>
<path fill="#ffb27d" style="fill: var(--color29, #ffb27d)" d="M61.043 204.185c0.282 0.082 0.606 0.129 0.941 0.129s0.659-0.047 0.965-0.135l-0.025 0.006c1.012-0.289 4.486-1.157 5.064-0.867s2.387 1.735 2.821 2.026 1.089 1.526 1.089 1.526c-0.4 0.291-1.488-0.7-2.022-0.772s-4.89 1.458-6.081 1.314c-1.166-0.189-2.174-0.428-3.155-0.73l0.163 0.043z"></path>
<path fill="#ffb27d" style="fill: var(--color29, #ffb27d)" d="M68.246 205.531c0 0.066 1.189 1.913 2.375 1.582l-1.016-1.39z"></path>
<path fill="#ffb27d" style="fill: var(--color29, #ffb27d)" d="M62.931 204.185s1.488-0.991 2.018-1.501c0 0 0.24 0.162 0.213 0.383-0.040 0.368-0.508 0.982-0.508 0.982z"></path>
<path fill="#b0d4ff" style="fill: var(--color35, #b0d4ff)" d="M36.712 169.305c-6.433-5.504-16.092 0.727-13.777 8.872 2.685 9.444 7.866 25.023 13.203 26.537 3.799 1.078 20.319 2.806 25.149 2.692 0 0 0.895 0.342 0.255-3.514 0 0-18.112-5.596-20.097-9.278-1.063-1.973 0.359-20.835-4.584-25.179z"></path>
<path fill="#ed7d2b" style="fill: var(--color39, #ed7d2b)" d="M313.041 157.846s12.48 12.939 13.069 17.808-5.976 12.473-5.976 12.473z"></path>
<path fill="#163560" style="fill: var(--color32, #163560)" d="M307.402 291.941s-0.44 6.865-1.769 6.961h-6.735l-8.372-0.068s0.057-2.015 2.507-2.439 6.548-2.126 8.038-5.362c1.567-3.402 6.331 0.908 6.331 0.908z"></path>
<path fill="#163560" style="fill: var(--color32, #163560)" d="M326.052 291.981s-0.442 6.865-1.769 6.961c-0.176 0.013-6.737 0-6.737 0l-8.372-0.066s0.059-2.018 2.509-2.441 6.548-2.126 8.038-5.362c1.561-3.402 6.331 0.908 6.331 0.908z"></path>
<path fill="#163560" style="fill: var(--color32, #163560)" d="M298.282 218.151s2.156 14.019 10.273 38.894 9.206 35.647 9.206 35.647l8.764-0.225s0.134-27.171-3.614-39.682-0.714-45.072-0.714-45.072z"></path>
<path fill="#1c468a" style="fill: var(--color33, #1c468a)" d="M294.047 208.414s-0.357 21.105 3.24 47.026 2.339 36.918 2.339 36.918l8.747 0.31s5.281-25.912 3.812-38.885 7.254-44.491 7.254-44.491z"></path>
<path fill="#ffb27d" style="fill: var(--color29, #ffb27d)" d="M311.076 159.062l-4.677 3.045-6.731-1.276c0.093-0.544 0.542-2.796 0.952-4.837 0.023-0.121 0.049-0.24 0.072-0.357 0.351-1.737 0.653-3.227 0.653-3.227l8.636-3.793c0 0.036-0.187 1.926-0.213 2.203-0.432 4.909 1.308 8.243 1.308 8.243z"></path>
<path fill="#ed7d2b" style="fill: var(--color39, #ed7d2b)" d="M301.418 157.5c0.132-0.055 8.115-2.394 8.982-2.105s1.375 1.967 1.375 1.967l-13.058 2.921s1.031-2.086 2.7-2.783z"></path>
<path fill="#f99746" style="fill: var(--color40, #f99746)" d="M322.789 211.082c-1.367 6.166-23.878 6.848-29.667 1.235-0.659-0.638-0.685-3.614-0.425-7.613 0.504-7.822 2.092-19.587 2.167-25.602 0.073-3.076 0.427-6.025 1.036-8.88l-0.056 0.312c0.802-3.981 1.795-7.417 3.034-10.731l-0.157 0.48s11.002-3.531 13.058-2.921c9.901 2.94 12.376 47.553 11.011 53.721z"></path>
<path fill="#ed7d2b" style="fill: var(--color39, #ed7d2b)" d="M292.695 204.704c0.504-7.822 2.092-19.587 2.167-25.602 0.073-3.076 0.427-6.025 1.036-8.88l-0.056 0.312 6.614-1.152s6.41 26.424-9.761 35.322z"></path>
<path fill="#ffb27d" style="fill: var(--color29, #ffb27d)" d="M296.3 193.806s0.449 1.080-0.5 1.801-1.558 1.901-1.346 2.751 2.287 2.26 3.008 2.035 2.188-1.348 2.030-1.801 0.995-3.963-0.757-5.315-2.436 0.529-2.436 0.529z"></path>
<path fill="#f99746" style="fill: var(--color40, #f99746)" d="M303.771 158.711s-6.453 1.193-11.608 8.755-8.549 13.181-7.609 15.918 9.55 12.21 11.038 12.21 3.891-1.063 4.039-3.508c0 0-6.055-9.119-4.856-10.479 0.512-0.582 7.903-6.555 8.948-3.848 1.724 4.49 0.047-19.047 0.047-19.047z"></path>
<path fill="#fca56b" style="fill: var(--color41, #fca56b)" d="M309.324 150.913c-1.386 2.339-6.538 4.348-8.685 5.088 0.023-0.121 0.049-0.24 0.072-0.357 0.351-1.737 0.653-3.227 0.653-3.227l6.297-2.764c1.39-0.015 2.234 0.3 1.663 1.261z"></path>
<path fill="#ffb27d" style="fill: var(--color29, #ffb27d)" d="M298.996 152.010s10.124 3.189 12.008-3.153 4.465-10.192-1.913-12.49-8.366-0.259-9.51 1.701-3.174 12.969-0.585 13.942z"></path>
<path fill="#163560" style="fill: var(--color32, #163560)" d="M299.983 137.477s0.638 7.38 2.156 7.063 2.911-0.551 2.683 1.671-2.339 4.788 2.351 5.192 11.481-11.708 10.205-14.006c-3.729-6.646-22.776-8.011-17.395 0.081z"></path>
<path fill="#b0d4ff" style="fill: var(--color35, #b0d4ff)" d="M191.706 182.763c-0.295 0.405-0.471 0.913-0.471 1.462 0 0.572 0.192 1.099 0.514 1.52l-0.004-0.006c0.050 0.065 0.096 0.139 0.133 0.218l0.003 0.007c12.257 7.354 48.981 37.121 48.981 58.111v43.467h-110.864v-43.492c0-21.116 37.235-51.356 49.213-58.317v0c0.313-0.413 0.503-0.934 0.51-1.499v-0.001c-0.007-0.573-0.198-1.1-0.515-1.527l0.005 0.007c-12.008-7.116-49.216-37.133-49.216-58.253v-43.458h110.864v43.479c0.002 21.082-37.112 51.259-49.154 58.283z"></path>
<path fill="#f99746" style="fill: var(--color40, #f99746)" d="M128.593 287.536h113.030c3.092 0 5.598 2.506 5.598 5.598v0 5.598h-124.466v-5.358c0-3.224 2.614-5.838 5.838-5.838v0z"></path>
<path fill="#a4c8fc" style="fill: var(--color42, #a4c8fc)" d="M161.733 246.74c-0.568 9.729 1.276 30.715 1.114 40.794h-32.849v-43.484c0-21.116 37.235-51.356 49.213-58.317v0c0.313-0.413 0.503-0.934 0.51-1.499v-0.001c-0.007-0.573-0.198-1.1-0.515-1.527l0.005 0.007c-12.008-7.116-49.216-37.133-49.216-58.253v-43.458h21.977l15.688 4.293v34.369s-1.554 9.903 2.339 19.625 12.242 40.924 12.118 44.976-19.413 45.799-20.384 62.476z"></path>
<path fill="#739af0" style="fill: var(--color43, #739af0)" d="M226.499 109.891c-6.722 0.102-18.284 1.314-36.969 6.029-12.799 3.227-34.867 0.797-46.537-0.876-0.287-0.043-0.617-0.067-0.954-0.067-3.421 0-6.252 2.525-6.732 5.813l-0.004 0.037c-0.043 0.283-0.068 0.609-0.068 0.941v5.009c0 13.804 37.142 43.707 46.964 51.371 1.441 1.133 2.358 2.875 2.358 4.833v0 76.763c-0.006 2.708-1.354 5.101-3.414 6.548l-0.025 0.017c-7.724 5.406-20.74 21.224-20.74 21.224h49.224s-13.201-15.267-20.597-20.931c-1.64-1.259-2.687-3.22-2.689-5.425v-78.219c0-0 0-0.001 0-0.001 0-1.945 0.898-3.68 2.301-4.814l0.012-0.009c9.629-7.713 45.96-37.724 45.96-51.518v-8.764c0-4.397-3.565-7.962-7.962-7.962-0.001 0-0.003 0-0.004 0h0z"></path>
<path fill="#f99746" style="fill: var(--color40, #f99746)" d="M122.755 74.093h124.466v5.389c0 3.207-2.6 5.806-5.806 5.806v0h-113.062c-3.092 0-5.598-2.506-5.598-5.598v0-5.598z"></path>
<path fill="#9ec3f6" style="fill: var(--color44, #9ec3f6)" d="M29.373 104.617l29.165 4.161-19.355-13.192-0.984 4.229-7.092 1.284-1.733 3.519z"></path>
<path fill="#cde0fb" style="fill: var(--color27, #cde0fb)" d="M58.538 108.777l-24.271-12.514-23.786-1.197 48.057 13.711z"></path>
<path fill="#cde0fb" style="fill: var(--color27, #cde0fb)" d="M39.183 95.585l19.355 13.192-14.984-20.616-4.371 7.424z"></path>
<path fill="#233862" style="fill: var(--color45, #233862)" d="M177.311 68.755c-2.596 4.518-5.859 6.261-5.859 6.261h-13.585s21.432-9.71 19.445-6.261z"></path>
<path fill="#ffb27d" style="fill: var(--color29, #ffb27d)" d="M166.893 103.713c-0.198 0.221-0.319 0.514-0.319 0.836 0 0.183 0.039 0.357 0.109 0.513l-0.003-0.008c0.323 0.895 1.392 1.894 2.636 2.894 0.159 0.127 0.3 0.245 0.425 0.353 0.035 0.028 0.066 0.056 0.096 0.085v0l0.072 0.066c1.161 1.063 0.725 1.314 2.806 3.483 2.375 2.47 4.012 2.515 4.465 2.29 0.396-0.191-0.406-1.503-1.291-2.977-0.045-0.070-0.085-0.142-0.13-0.213-0.119-0.196-0.236-0.393-0.353-0.591-1.037-1.773-0.772-2.604-0.525-5.243 0.2-2.145 3.336-11.978 3.336-11.978l-4.552-0.785s-1.371 7.83-2.881 9.038c-0.808 0.638-1.701 0.651-2.488 1.127l-0.162 0.102c-0.474 0.29-0.882 0.624-1.241 1.005l-0.003 0.003z"></path>
<path fill="#233862" style="fill: var(--color45, #233862)" d="M166.893 103.713c-0.198 0.221-0.319 0.514-0.319 0.836 0 0.183 0.039 0.357 0.109 0.513l-0.003-0.008c0.396 0.893 1.439 1.888 2.641 2.883 0.157 0.132 0.296 0.251 0.425 0.364 0.035 0.028 0.066 0.056 0.096 0.085v0l0.072 0.066c1.161 1.063 0.725 1.314 2.806 3.483 2.375 2.47 4.012 2.515 4.465 2.29 0.396-0.191-0.406-1.503-1.291-2.977-1.707-0.676-3.134-1.745-4.22-3.099l-0.016-0.020c-1.431-1.82-2.381-4.158-3.359-5.528l-0.162 0.102c-0.475 0.29-0.884 0.625-1.243 1.007l-0.003 0.003z"></path>
<path fill="#ffb27d" style="fill: var(--color29, #ffb27d)" d="M203.586 100.871c0.281 1.403 2.283 1.169 4.52 0.623s1.701 0.104 4.89-0.249 4.15-1.541 4.252-2.013c0.087-0.425-1.488-0.57-3.172-0.763l-0.638-0.076c-1.913-0.238-3.3-1.469-5.032-2.479-1.639-0.954-4.084-4.852-4.084-4.852l-4.367 0.345s2.29 3.48 3.176 4.994c0.521 0.891 0.495 2.067 0.425 2.977-0.023 0.191-0.036 0.413-0.036 0.637 0 0.303 0.024 0.6 0.070 0.889l-0.004-0.032z"></path>
<path fill="#233862" style="fill: var(--color45, #233862)" d="M208.106 101.493c2.239-0.546 1.701 0.104 4.89-0.249s4.15-1.541 4.252-2.013c0.087-0.425-1.488-0.57-3.172-0.763l-0.017 0.032c-1.291 0.843-2.859 1.365-4.545 1.422l-0.015 0c-2.16 0.053-4.448-0.565-5.94-0.542-0.022 0.186-0.035 0.401-0.035 0.619 0 0.307 0.025 0.608 0.073 0.901l-0.004-0.032c0.274 1.392 2.277 1.18 4.513 0.625z"></path>
<path fill="#233862" style="fill: var(--color45, #233862)" d="M186.85 72.945l-9.412 25.329c-0.187 0.014-0.405 0.023-0.625 0.023-0.785 0-1.545-0.105-2.267-0.303l0.060 0.014c-1.276-0.368-2.738-1.333-2.738-1.333s1.488-15.401 4.252-24.237c0.708-2.268 1.501-4.105 2.375-5.139 4.269-5.056 8.355 5.645 8.355 5.645z"></path>
<path fill="#2b478b" style="fill: var(--color46, #2b478b)" d="M182.7 55.489c-2.675-0.863-10.303 0.245-17.965 1.743l-1.605-2.636-16.551-1.293s-5.462 12.118-2.47 19.827c0.438 1.135 1.526 1.614 3.015 1.637v0s9.875 0.242 13.075 0.242c8.23 0 17.418-5.66 18.607-5.895 1.947-0.389 2.725 3.502 4.677 7.588s18.284 18.093 18.284 18.093 2.513 0.025 3.55-0.364c1.114-0.425 1.524-0.961 1.524-0.961s-18.11-36.023-24.141-37.982z"></path>
<path fill="#233862" style="fill: var(--color45, #233862)" d="M161.365 5.997c-0.857-0.517-1.893-0.824-2.999-0.824-0.067 0-0.133 0.001-0.2 0.003l0.010-0c-0.048 0.001-0.105 0.001-0.162 0.001-0.5 0-0.991-0.038-1.471-0.112l0.054 0.007c-6.272-0.85-10.048 8.27-10.269 11.032-0.41 5.090-3.102 5.866-6.893 9.053-7.598 6.393-5.37 13.819-1.216 16.583 2.494 1.656 6.888 0 6.888 0 0.062 0.042 12.018-6.684 17.912-9.928 8.849-1.261 1.903-23.701-1.654-25.814z"></path>
<path fill="#ffb27d" style="fill: var(--color29, #ffb27d)" d="M158.094 29.043c0.025 0.017-2.9 1.016-4.856 0.151-1.841-0.814-3.236-3.842-3.208-3.844 0.838-0.038 1.756-0.77 2.464-5.572l0.357 0.127 6.002 2.156s-0.425 1.913-0.714 3.755c-0.247 1.537-0.372 3.011-0.045 3.227z"></path>
<path fill="#ed975d" style="fill: var(--color36, #ed975d)" d="M158.853 22.061s-0.425 1.913-0.714 3.755c-3.444-0.619-4.794-4.039-5.279-5.91z"></path>
<path fill="#ffb27d" style="fill: var(--color29, #ffb27d)" d="M159.737 23.97s-8.2-1.101-7.441-6.197 0.213-8.672 5.489-8.183 5.991 2.583 6.151 4.346-2.045 10.19-4.199 10.035z"></path>
<path fill="#233862" style="fill: var(--color45, #233862)" d="M163.64 11.142s-5.249 4.524-8.821 4.89-4.924-0.783-4.924-0.783c1.402-1.255 2.538-2.773 3.336-4.482l0.036-0.085c0.369-0.821 1.143-1.402 2.061-1.487l0.010-0.001c2.549-0.213 7.384-0.313 8.302 1.947z"></path>
<path fill="#233862" style="fill: var(--color45, #233862)" d="M160.358 10.738s1.758 1.701 2.311 2.957c0.533 1.216 0.693 4.122 0.268 5.277 0 0 2.736-5.315 1.189-7.907-1.644-2.74-3.767-0.328-3.767-0.328z"></path>
<path fill="#fff" style="fill: var(--color47, #fff)" d="M164.999 41.125c-0.249 16.602-0.068 13.133-1.884 14.708-0.438 0.379-1.669 0.606-3.287 0.712-5.102 0.338-14.032-0.502-14.38-1.441-1.174-3.255-0.345-4.267-1.325-9.25-0.102-0.529-0.227-1.103-0.376-1.729-0.817-3.423-1.612-4.588 1.276-10.086 2.628-4.981 5.358-9.025 5.602-8.878 6.935 4.116 7.494 0.657 7.494 0.657s7.001 7.209 6.88 15.307z"></path>
<path fill="#2b478b" style="fill: var(--color46, #2b478b)" d="M182.768 83.931l-5.33 14.344c-0.187 0.014-0.405 0.023-0.625 0.023-0.785 0-1.545-0.105-2.267-0.303l0.060 0.014c-1.276-0.368-2.738-1.333-2.738-1.333s1.488-15.401 4.252-24.237z"></path>
<path fill="#fff" style="fill: var(--color47, #fff)" d="M158.13 25.816s7.133 1.21 7.971 4.282 5.768 21.139 5.768 21.139-3.627 0.651-5.302-1.025-5.838-15.558-5.838-15.558z"></path>
<path fill="#ebf3ff" style="fill: var(--color48, #ebf3ff)" d="M159.829 56.551c-5.102 0.338-14.032-0.502-14.38-1.441-1.174-3.255-0.345-4.267-1.325-9.25l2.456-6.914s-0.406 7.698 1.864 9.725 9.297 3.908 10.418 5.6c0.452 0.649 0.789 1.415 0.96 2.241l0.007 0.040z"></path>
<path fill="#ffb27d" style="fill: var(--color29, #ffb27d)" d="M153.995 53.307s5.024-1.118 5.834-0.674 2.791 2.069 3.038 2.643-1.803-0.425-2.47-0.608c-0.425-0.115-1.571 0.281-2.126 0.468-2.37 0.791-3.827 0.383-3.827 0.383z"></path>
<path fill="#fff" style="fill: var(--color47, #fff)" d="M150.633 25.156s-6.744 0.425-9.078 3.672c-3.287 4.584-9.805 24.109-6.070 26.722 4.207 2.932 19.149 0.768 19.149 0.768s0.497-2.326-0.196-3.449-11.933-2.94-12.452-3.459 6.487-10.118 6.487-11.674 2.16-12.58 2.16-12.58z"></path>
<path fill="#ffb27d" style="fill: var(--color29, #ffb27d)" d="M160.071 54.032s1.063 1.356 1.397 1.52c0.142 0.078 0.311 0.124 0.491 0.124 0.027 0 0.054-0.001 0.080-0.003l-0.004 0-0.708-1.276z"></path>
<path fill="#ffb27d" style="fill: var(--color29, #ffb27d)" d="M159.829 52.633l3.059 1.488c-0.101 0.124-0.254 0.202-0.425 0.202-0.029 0-0.058-0.002-0.086-0.007l0.003 0c-0.504-0.088-0.95-0.215-1.375-0.38l0.049 0.017z"></path>
<path fill="#f99746" style="fill: var(--color40, #f99746)" d="M161.468 57.632h24.201l7.282-18.103h-24.164l-7.318 18.103z"></path>
<path fill="#ed7d2b" style="fill: var(--color39, #ed7d2b)" d="M185.953 56.926h-31.958v0.706h31.673l0.285-0.706z"></path>
<path fill="#fff" style="fill: var(--color47, #fff)" d="M179.56 48.579c0.183-0.638-0.185-1.152-0.823-1.152-0.699 0.039-1.279 0.505-1.485 1.141l-0.003 0.012c-0.183 0.638 0.185 1.152 0.823 1.152 0.699-0.038 1.279-0.505 1.485-1.141l0.003-0.012z"></path>
<path fill="#cde0fb" style="fill: var(--color27, #cde0fb)" d="M337.097 69.733l5.194 16.704c0.061 0.191 0.096 0.41 0.096 0.637 0 0.967-0.632 1.786-1.505 2.067l-0.015 0.004-28.995 9.025c-0.192 0.062-0.414 0.098-0.643 0.098-0.706 0-1.332-0.34-1.725-0.865l-0.004-0.006c-0.144-0.187-0.26-0.405-0.336-0.642l-0.004-0.015-5.194-16.689c-0.062-0.192-0.098-0.413-0.098-0.643 0-0.964 0.631-1.782 1.503-2.061l0.015-0.004 28.995-9.025c0.193-0.063 0.416-0.099 0.647-0.099 0.965 0 1.782 0.632 2.062 1.504l0.004 0.015z"></path>
<path fill="#bed7fb" style="fill: var(--color49, #bed7fb)" d="M342.388 87.166c-0.040 0.926-0.659 1.698-1.503 1.965l-0.015 0.004-28.995 9.025c-0.192 0.062-0.414 0.098-0.643 0.098-0.706 0-1.332-0.34-1.725-0.865l-0.004-0.006 14.553-13.885z"></path>
<path fill="#dfebfd" style="fill: var(--color25, #dfebfd)" d="M337.097 69.733l-12.692 16.528-20.17-5.349-0.266-0.85c-0.062-0.192-0.098-0.413-0.098-0.643 0-0.964 0.631-1.782 1.503-2.061l0.015-0.004 28.995-9.025c0.194-0.063 0.418-0.1 0.65-0.1 0.96 0 1.775 0.625 2.059 1.49l0.004 0.015z"></path>
<path fill="#cde0fb" style="fill: var(--color27, #cde0fb)" d="M235.67 8.558l-3.642 13.947c-0.056 0.213-0.143 0.399-0.259 0.565l0.004-0.006c-0.326 0.469-0.862 0.773-1.47 0.773-0.158 0-0.311-0.021-0.456-0.059l0.012 0.003-24.237-6.323c-0.773-0.207-1.333-0.901-1.333-1.726 0-0.16 0.021-0.314 0.060-0.461l-0.003 0.013 3.648-13.942c0.208-0.773 0.902-1.333 1.727-1.333 0.159 0 0.313 0.021 0.46 0.060l-0.013-0.003 24.222 6.312c0.775 0.206 1.337 0.901 1.337 1.727 0 0.162-0.021 0.318-0.062 0.467l0.003-0.013z"></path>
<path fill="#bed7fb" style="fill: var(--color49, #bed7fb)" d="M231.775 23.064c-0.326 0.469-0.862 0.773-1.47 0.773-0.158 0-0.311-0.021-0.456-0.059l0.012 0.003-24.237-6.323c-0.724-0.192-1.259-0.812-1.324-1.567l-0.001-0.007 16.234-3.374z"></path>
<path fill="#dfebfd" style="fill: var(--color25, #dfebfd)" d="M235.67 8.558l-16.085 6.032-11.774-12.543 0.185-0.714c0.208-0.773 0.902-1.333 1.727-1.333 0.159 0 0.313 0.021 0.46 0.060l-0.013-0.003 24.222 6.321c0.775 0.206 1.337 0.901 1.337 1.727 0 0.162-0.021 0.318-0.062 0.467l0.003-0.013z"></path>
</symbol>
<symbol id="svgicon-irregularshape" viewBox="0 0 328 300">
<path fill="#fff" style="fill: var(--color47, #fff)" d="M0 0.727h328.545v299.273h-328.545v-299.273z"></path>
<path fill="#d2dcef" style="fill: var(--color50, #d2dcef)" opacity="0.3" d="M326.105 116.959c1.55-5.895 2.44-12.663 2.44-19.639 0-7.697-1.084-15.14-3.107-22.186l0.139 0.566c-1.841-6.592-4.622-12.933-8.032-18.982-8.233-13.902-20.51-22.733-37.682-25.686-14.786-2.542-31.4-1.075-45.228-7.114-8.109-3.537-13.074-10.451-20.143-15.249-6.053-4.114-13.308-6.811-20.749-7.937-16.024-2.418-32.542 1.264-45.6 10.017-15.228 10.219-25.090 25.402-30.584 41.655-0.646 1.908-0.021 3.67 1.228 4.954-0.715 4.853-1.145 9.735-1.476 14.643-0.427 6.277-1.131 12.841-6.055 17.663-7.718 7.56-20.582 9.437-30.83 12.736-12.273 3.952-22.685 9.914-30.050 19.89-7.393 10.031-10.224 22.361-8.056 34.233 1.259 6.883 4.367 13.52 4.88 20.51 0.451 6.127-1.278 12.178-4.83 17.389-7.472 10.971-22.855 14.071-31.242 24.398-8.347 10.255-24.768 46.299 10.885 67.417 12.275 7.272 28.815 9.447 43.472 6.439 7.329-1.5 12.826-5.409 19.189-8.71 7.078-3.67 14.808-3.184 22.39-1.114 15.313 4.178 28.18 13.976 44.145 16.551 14.4 2.323 26.37-2.385 37.009-10.928 9.754-7.835 17.887-17.031 31.242-19.604 14.088-2.712 28.963 0.601 43.124 1.192 13.782 0.57 27.634-1.39 39.048-8.862 10.436-6.838 18.304-16.571 22.058-27.787 4.155-12.402 1.727-24.696-3.12-36.606-5.311-13.048-11.417-25.34-8.388-39.564 2.948-13.88 10.443-26.537 13.921-40.286z"></path>
</symbol>
<symbol id="svgicon-logo" viewBox="0 0 954 300">
<path fill="#414141" style="fill: var(--color51, #414141)" d="M174 150.184c44.51-22.837 75.735-75.857 76.163-137.388 0-7.041-5.755-12.796-12.796-12.796s-12.796 5.755-12.796 12.796c0 68.939-44.694 124.47-99.551 124.47s-99.49-56.204-98.878-124.47c0-7.041-5.694-12.796-12.735-12.796s-12.796 5.755-12.796 12.796c0 61.347 30.796 114.184 75.061 137.143-44.326 22.837-75.674 75.796-75.674 137.265 0 7.041 5.755 12.796 12.796 12.796s12.796-5.755 12.796-12.796c0-68.939 44.694-124.47 99.551-124.47s99.551 55.53 99.551 124.47c0.061 7.041 5.755 12.735 12.796 12.796 7.041 0 12.122-5.755 11.51-12.796-0.061-61.225-30.857-114.061-75-137.020z"></path>
<path fill="#414141" style="fill: var(--color51, #414141)" d="M77.878 37.653h94.47c7.041 0 13.408-5.755 13.408-12.796-0.061-7.041-5.755-12.735-12.796-12.796h-95.082c-7.041 0-12.796 5.755-12.796 12.796s5.755 12.796 12.796 12.796v0z"></path>
<path fill="#f6ca48" style="fill: var(--color52, #f6ca48)" d="M102.122 61.898c-7.041 0-12.796 5.755-12.796 12.796s5.755 12.796 12.796 12.796h45.98c7.041 0 12.796-5.755 12.796-12.796s-5.755-12.796-12.796-12.796h-45.98z"></path>
<path fill="#f6ca48" style="fill: var(--color52, #f6ca48)" d="M172.959 261.674h-95.082c-7.041 0-12.796 5.694-12.796 12.796 0 7.041 5.694 12.796 12.796 12.796 0 0 0 0 0 0h94.47c7.041 0 12.796-5.755 13.408-12.796-0.061-7.041-5.755-12.735-12.796-12.796z"></path>
<path fill="#414141" style="fill: var(--color51, #414141)" d="M148.041 237.429c7.041 0 12.796-5.082 12.796-12.796-0.061-7.041-5.755-12.735-12.796-12.796h-45.98c-7.041 0-12.796 5.694-12.796 12.796 0 7.041 5.694 12.796 12.796 12.796 0 0 0 0 0 0h45.98z"></path>
<path fill="#f3cb48" style="fill: var(--color53, #f3cb48)" d="M598.347 71.265c0 39.359-31.907 71.265-71.265 71.265s-71.265-31.907-71.265-71.265c0-39.359 31.907-71.265 71.265-71.265s71.265 31.907 71.265 71.265z"></path>
<path fill="#414141" style="fill: var(--color51, #414141)" d="M483.674 251.939c0.122-0.49 0.49-0.857 0.98-0.98 0.49-0.184 0.98-0.245 1.47-0.245h22.53c2.265 0 4.47-1.225 6.49-3.674 2.326-2.878 4.163-6.122 5.51-9.551 1.714-4.225 3.184-8.571 4.408-12.98 1.286-4.714 2.388-9.367 3.184-13.959s1.47-8.694 1.959-12.367c0.429-2.816 0.674-5.633 0.735-8.449 0-1.47-0.918-2.449-2.694-2.939-1.408-0.429-2.939-0.674-4.408-0.735-1.775 0-3.612 1.347-5.51 4.041-2.082 3-3.98 6.184-5.633 9.429-1.898 3.612-3.612 7.041-5.143 10.408-1.102 2.51-2.388 4.898-3.796 7.225-4.714 6.429-10.041 12.49-15.796 18-13.225 12.796-28.102 23.878-44.204 32.816-7.837 4.347-15.061 7.47-21.735 9.429-1.653 0.49-3.918 1.041-6.857 1.714s-5.204 0.551-6.857-0.245l0.245-0.49c2.633-2.143 5.326-4.102 8.082-6s5.571-3.857 8.326-6c5.388-4.102 11.265-8.939 17.633-14.571 6.429-5.694 12.429-11.816 18-18.367 5.449-6.367 10.163-13.286 14.082-20.694 3.735-7.163 5.633-14.449 5.633-21.796 0-0.367-0.122-0.735-0.245-1.102-0.184-0.429-0.429-0.612-0.735-0.612-1.163 0-3.674 1.653-7.592 5.020s-8.694 7.592-14.326 12.735c-5.633 5.143-11.939 10.653-18.857 16.53s-13.898 11.388-20.939 16.53c-6.551 4.837-13.53 9.122-20.816 12.735-6.857 3.367-12.98 5.020-18.367 5.020-0.796 0-1.225-0.49-1.225-1.47 0-1.286 1.47-3.245 4.408-5.755s6.551-5.449 10.898-8.816c4.347-3.367 9-7.041 14.082-11.143 4.959-3.98 9.674-8.265 14.082-12.857 4.163-4.286 7.837-9 10.898-14.082 2.939-4.898 4.408-9.796 4.408-14.694 0-1.653-0.796-2.449-2.449-2.449-5.082 0-10.225 1.653-15.551 5.020s-10.592 7.041-15.918 11.020c-5.326 3.98-10.653 7.653-16.041 11.020s-10.775 5.020-16.163 5.020c-1.286 0-1.959-0.49-1.959-1.47 0-0.49 1.041-1.775 3.061-3.796s4.592-4.592 7.714-7.592c3.122-3 6.429-6.306 9.918-9.918s6.796-7.102 9.918-10.53c2.816-3.061 5.326-6.306 7.592-9.796 1.959-3.122 2.939-5.633 2.939-7.592 0-1.653-0.612-2.571-1.775-2.816-1.286-0.245-2.571-0.306-3.857-0.122s-2.571 0.245-3.857 0.245c-1.225 0-1.775-0.674-1.775-1.959v-101.939c0-0.612 0.122-1.286 0.367-1.837 0.306-0.612 0.918-0.918 1.592-0.857 0.674 0 2.082 0.612 4.286 1.837s4.775 2.51 7.714 3.918c2.939 1.408 6.061 2.694 9.429 3.918 2.939 1.163 6.061 1.775 9.184 1.837h77.204l1.714-0.735c0.49-0.49 1.47-1.53 2.939-3.061s3-3.122 4.53-4.653c1.53-1.53 3.061-3 4.53-4.286s2.449-1.959 2.939-1.959c0.674 0 2.388 0.98 5.265 2.939s5.816 4.225 8.939 6.857 5.878 5.082 8.449 7.47c2.51 2.388 3.98 3.98 4.286 4.775l-0.49 1.225c-1.408 0.612-2.755 1.347-4.041 2.204-1.898 1.163-2.816 2.204-2.816 3.184v69.306c0 1.47-1.286 2.694-3.796 3.674-2.816 1.041-5.755 1.898-8.694 2.449-3.245 0.674-6.429 1.163-9.551 1.47s-5.204 0.49-6.367 0.49c-0.49 0-1.163-0.061-2.082-0.122s-1.347-0.551-1.347-1.347v-82.53c0-1.653-0.796-2.449-2.449-2.449h-78.184c-1.653 0-2.449 0.796-2.449 2.449v65.388c0 1.653 0.796 2.449 2.449 2.449h73.041c1.225-0.061 2.265 0.796 2.449 1.959-0.245 0.306-0.612 0.49-0.98 0.49h-63.49c-0.98 0.061-1.898 0.429-2.571 1.102-0.796 0.551-1.286 1.408-1.347 2.326 0 1.47 1.102 2.694 3.245 3.674 2.449 1.041 4.959 1.959 7.53 2.571 2.878 0.735 5.571 1.53 8.082 2.326s4.225 1.775 5.020 2.939c-0.429 1.286-1.592 2.204-2.939 2.326-1.347 0.184-2.633 0.551-3.918 1.102-0.857 0.612-1.653 1.286-2.326 2.082l-4.041 4.041c-1.47 1.47-2.878 2.878-4.163 4.163l-2.449 2.449c-0.49 0.49-0.429 1.041 0.245 1.714 0.306 0.061 0.551 0.122 0.857 0.245 0.245 0.122 0.551 0.184 0.857 0.245h84.49c0.98-0.184 2.265-0.98 3.918-2.449s3.367-3.122 5.143-4.898c1.775-1.775 3.612-3.551 5.388-5.265 1.347-1.408 2.939-2.571 4.653-3.551 1.898 1.286 3.674 2.694 5.388 4.163 2.755 2.265 5.694 4.775 8.694 7.47s5.694 5.204 8.082 7.47c2.388 2.265 3.551 3.674 3.551 4.163 0.061 0.612-0.184 1.286-0.612 1.714-0.429 0.306-0.857 0.674-1.347 0.98-3.735 3.612-6.612 8.388-8.571 14.326-2.082 6.367-3.796 12.796-5.143 19.347-1.47 6.918-3.184 13.898-5.143 20.939-1.837 6.796-4.837 13.286-8.816 19.102-3.918 5.694-9.245 10.347-16.041 13.959s-15.735 5.388-26.816 5.388c-0.306 0-0.674-0.429-0.98-1.347s-0.551-1.53-0.735-1.837c-0.98-2.816-1.775-5.633-2.326-8.571-0.551-2.878-1.53-5.694-2.816-8.326-1.47-2.755-3.49-5.143-6-6.98-2.326-1.653-3.918-3.306-4.714-4.959zM506.082 109.102c-0.306 0.184-0.612 0.306-0.98 0.245h-9.551c-4.225 0-8.939 0.061-14.082 0.122s-10.47 0.122-16.041 0.122c-5.571 0-10.592-0.061-15.061-0.122s-8.204-0.122-11.143-0.122c-2.939 0-4.47-0.061-4.653-0.245 0-0.306 0.429-0.674 1.225-0.98 0.551-0.245 1.102-0.429 1.714-0.49h65.633c1.163 0.122 2.204 0.612 2.939 1.47v0z"></path>
<path fill="#414141" style="fill: var(--color51, #414141)" d="M774.306 127.225c-0.674 0-1.714-0.061-3.184-0.122s-3-0.122-4.653-0.122c-1.53 0-3.061 0.122-4.53 0.367-1.408 0.245-2.143 0.612-2.326 1.102-0.245 0.674-0.429 1.347-0.49 2.082-0.184 1.041-0.306 2.204-0.367 3.429s-0.184 2.388-0.367 3.551c-0.122 0.796-0.245 1.653-0.245 2.449-0.184 1.163-0.306 3.122-0.49 6s-0.429 6.184-0.735 9.918c-0.306 3.735-0.674 7.653-0.98 11.633s-0.674 7.775-1.102 11.265c-0.429 3.49-0.796 6.429-1.225 8.694s-0.796 3.612-1.102 3.918c-1.163 0.796-3.245 1.592-6.367 2.326s-6.306 1.225-9.551 1.47c-2.878 0.245-5.816 0.184-8.694-0.245-2.51-0.429-3.796-1.286-3.796-2.571 0-9.551 0.735-19.102 2.204-28.53 1.47-9.367 2.755-18.796 3.918-28.286 0.49-3.918 0.796-7.837 0.98-11.755s0.551-7.898 1.225-11.755c0-0.306 0.306-0.796 0.98-1.47 3.245 0 6.429 0.612 9.429 1.837s6.122 2.633 9.306 4.163c3.184 1.53 6.49 2.939 9.796 4.163 3.429 1.225 7.041 1.837 10.653 1.837 0.918 0 1.837-0.184 2.694-0.612s1.347-1.347 1.225-2.326v-42.857c0-1.653-0.796-2.449-2.449-2.449h-46.53c-0.918-0.061-1.653-0.857-1.592-1.837 0.061-0.857 0.735-1.592 1.592-1.592h44.571c0.796 0 1.898-0.674 3.306-2.082s2.816-2.939 4.286-4.653c1.47-1.714 2.878-3.306 4.163-4.775s2.388-2.204 3.184-2.204c0.49 0 1.898 0.796 4.286 2.449s4.959 3.49 7.837 5.633c2.878 2.143 5.571 4.102 8.082 6s4.225 3.122 5.020 3.796l0.49 0.98c-0.122 0.796-0.612 1.47-1.225 1.959-0.674 0.49-1.347 0.918-2.082 1.225-0.796 0.367-1.53 0.735-2.204 1.225-0.674 0.429-1.163 1.163-1.347 1.959-0.367 1.837-0.429 3.674-0.245 5.51 0.184 2.020 0.245 3.857 0.245 5.51 0 2.755 0.061 5.816 0.122 9.184s0.061 6.735 0 10.163c-0.061 3.429-0.245 6.796-0.49 10.041-0.184 3-0.674 5.939-1.347 8.816-0.306 1.47-1.53 2.633-3.551 3.551-2.265 0.98-4.592 1.714-6.98 2.204-2.51 0.551-5.020 0.918-7.592 1.102-2.449 0.184-4.347 0.245-5.633 0.245-0.857 0-1.653-0.551-1.959-1.347-0.49-0.98-0.857-2.020-1.102-3.061-0.245-1.163-0.429-2.265-0.612-3.429-0.122-0.918-0.367-1.837-0.735-2.694l-1.714-0.98zM815.204 179.694c-0.306 1.286-1.53 2.265-3.551 2.939-1.898 0.551-3.49 1.898-4.286 3.674-0.674 1.653-0.918 3.857-0.857 6.735 0.061 2.326 0.061 4.653-0.122 6.98-0.306 6.184-0.674 12.551-1.102 18.98-0.429 6.367-1.286 12.735-2.571 18.98 0 0.184-0.061 0.367-0.122 0.49s-0.122 0.306-0.122 0.49c0.061 1.041 0.306 2.020 0.735 2.939 0.49 1.163 0.735 2.388 0.735 3.674-0.184 1.286-0.551 2.571-0.98 3.796-0.429 1.347-0.918 2.755-1.47 4.041-1.714 4.225-3.98 8.143-6.857 11.633-2.939 3.674-6.245 6.918-9.918 9.796-3.612 2.816-7.714 5.082-12 6.735-4.286 1.592-8.816 2.449-13.347 2.449-1.286 0-2.143-0.796-2.449-2.449-0.674-2.388-1.225-4.775-1.592-7.225-0.245-1.775-0.612-3.49-1.225-5.143s-1.47-3.184-2.449-4.653c-1.592-2.143-3.367-4.163-5.265-6-0.306-0.306-0.796-0.796-1.347-1.347-0.551-0.49-0.857-1.163-0.857-1.837s0.796-1.102 2.326-1.347c1.775-0.245 3.612-0.367 5.388-0.367 2.020 0 4.041 0.061 6 0.122s3.245 0.122 3.918 0.122c2.449 0 4.53-1.53 6.245-4.653s3.122-7.102 4.286-12c1.225-5.326 2.143-10.714 2.816-16.163 0.735-5.878 1.286-11.571 1.714-17.020s0.674-10.408 0.735-14.816c0.061-4.408 0.122-7.592 0.122-9.551 0-1.286-0.796-2.143-2.449-2.449-1.837-0.367-3.735-0.49-5.633-0.367-2.143 0.061-4.102 0.184-5.878 0.245s-2.878-0.061-3.184-0.367c0.122-0.551 0.49-1.102 0.98-1.347s0.98-0.429 1.47-0.612c2.449-0.674 4.959-1.102 7.47-1.347 2.571-0.245 5.020-1.041 7.225-2.326 1.286-0.674 2.388-1.53 3.429-2.571l3.918-3.674c1.286-1.225 2.449-2.326 3.429-3.306s1.714-1.47 2.204-1.47c0.98 0 2.633 0.796 4.898 2.449s4.714 3.49 7.225 5.51c2.51 2.020 4.959 4.102 7.225 6.122s3.857 3.49 4.653 4.286l0.49 1.225zM849.98 245.571l0.49 1.714 1.959 0.98c0.98-0.49 3.367-0.857 7.102-1.102s7.837-0.49 12.245-0.735c4.408-0.245 8.633-0.429 12.612-0.49s6.735-0.122 8.204-0.122c2.633 0 5.204-0.061 7.837-0.245s5.265-0.061 7.837 0.245c0.429 0 0.857 0.122 1.225 0.245 0.49 0.184 0.735 0.429 0.735 0.735 0.061 1.225-0.49 2.388-1.47 3.184-1.102 0.857-2.265 1.653-3.551 2.204-1.347 0.674-2.816 1.163-4.286 1.47s-2.694 0.674-3.674 0.98c-8.816 2.755-17.571 5.816-26.204 9.061s-17.388 6.367-26.204 9.306c-2.265 0.796-4.47 1.53-6.612 2.082-2.204 0.612-4.347 1.47-6.367 2.571-1.347 0.612-2.571 1.347-3.796 2.204-1.714 1.163-2.878 1.714-3.551 1.714-0.796 0-2.143-1.53-4.041-4.53s-3.796-6.49-5.755-10.408c-1.959-3.918-3.735-7.653-5.265-11.265s-2.326-5.939-2.326-7.102c0-1.653 0.735-2.449 2.204-2.449h34.53c0.674 0 1.53-0.796 2.571-2.449s2.143-3.49 3.306-5.633c1.163-2.143 2.143-4.163 3.061-6.122s1.53-3.245 1.837-3.918c6.184-12.429 12.551-24.674 18.98-36.857s12.612-24.551 18.49-37.102c0.306-0.674 0.796-1.775 1.47-3.429s1.408-3.306 2.204-5.020c0.735-1.53 1.53-3.061 2.449-4.53 0.796-1.286 1.53-1.959 2.204-1.959 1.47 0 4.041 0.49 7.714 1.47 3.796 1.041 7.53 2.265 11.143 3.796 3.429 1.408 6.796 3.122 9.918 5.143 2.878 1.898 4.347 3.612 4.53 5.265 0 0.49-0.429 1.041-1.347 1.714s-1.898 1.347-2.939 2.082-2.143 1.408-3.184 2.082-1.837 1.163-2.326 1.47c-6.184 4.53-11.633 10.041-16.041 16.286-4.47 6.306-8.878 12.551-13.102 18.735-6.061 9-13.102 17.265-20.939 24.735-7.775 7.347-15.551 14.939-23.388 22.775l-0.49 1.225zM850.47 100.775c-0.49 0.49-2.388 0.857-5.755 1.102s-7.041 0.429-11.143 0.612c-4.102 0.184-7.959 0.245-11.633 0.245h-7.225c-1.286 0-2.143-0.551-2.449-1.592s0.306-1.592 1.959-1.592h33.306c0.551 0 1.102 0.122 1.592 0.367 0.551 0.245 0.98 0.49 1.347 0.857v0zM890.694 67.959v29.878c-0.061 0.796 0.551 1.408 1.347 1.47 0 0 0 0 0 0 0.796 0.122 1.53 0.245 2.326 0.245 3.918 0 7.225-0.674 9.918-2.082 2.633-1.347 4.959-3.245 6.857-5.51 1.959-2.388 3.674-4.898 5.143-7.592 1.53-2.755 3.245-5.633 5.020-8.571l1.47-0.735 1.47 0.49c0.98 0.98 2.878 2.694 5.755 5.143s5.878 5.082 9.061 7.837c3.184 2.755 6 5.326 8.449 7.714s3.674 3.857 3.674 4.53c0 0.49-0.674 0.857-1.959 1.102-1.47 0.245-2.939 0.429-4.408 0.49-1.653 0.061-3.245 0.122-4.898 0.122h-3.184c-3.429 0-7.47-0.122-12.122-0.367s-9.429-0.429-14.326-0.612c-4.898-0.184-9.612-0.184-14.204 0-3.796 0.061-7.592 0.551-11.265 1.47-0.796 0.306-1.837 0.674-3.061 1.102s-1.837 1.163-1.837 2.326c0 0.98 0.674 1.714 2.082 2.204 1.53 0.551 3.184 0.918 4.775 1.225 1.714 0.306 3.429 0.735 5.143 1.225 1.653 0.49 2.633 1.286 2.939 2.449-0.367 1.225-1.347 2.143-2.571 2.449-1.163 0.367-2.326 0.98-3.306 1.714-2.143 1.47-4.041 3.306-5.633 5.388s-3.306 4.041-5.143 5.878c-3.245 3.429-6.674 6.857-10.286 10.286-3.551 3.429-7.408 6.551-11.51 9.306-0.674 0.306-1.53 0.857-2.694 1.592-0.857 0.49-1.592 1.102-2.204 1.837-0.184 0.612-0.306 1.286-0.245 1.959v1.959c1.102 2.082 2.694 3.918 4.53 5.388 1.714 1.286 3.367 2.633 5.020 4.041 1.714 1.47 3.061 3.245 4.041 5.265 1.041 2.143 1.592 5.204 1.592 9.306 0.061 4.041-1.163 8.020-3.551 11.265s-5.816 4.898-10.408 4.898c-3.122 0-6.429-1.898-9.918-5.633-3.796-4.102-7.225-8.449-10.286-13.102-3.306-4.837-6.306-9.918-9.061-15.061-2.694-5.082-4.775-8.816-6.245-11.265-0.49-0.612-0.735-1.408-0.735-2.204-0.061-0.674 0.306-1.347 0.98-1.592 0.612-0.245 1.286-0.367 1.959-0.367 3.429 0 6.918 0.612 10.163 1.714s6.735 1.714 10.163 1.714c1.163 0 2.265-0.918 3.429-2.694 1.286-2.020 2.388-4.163 3.306-6.367 1.041-2.449 1.959-4.837 2.694-7.102s1.286-3.918 1.592-4.898c1.714-5.939 3.061-11.939 4.041-18 0.918-5.571 1.47-11.143 1.714-16.775 0.245-5.571 0.306-11.204 0.245-16.898s-0.122-11.755-0.122-18.122c0-1.286 0.796-2.143 2.449-2.449 1.286-0.306 3.98-0.49 7.959-0.49s8.143 0.122 12.49 0.367c3.857 0.184 7.714 0.674 11.51 1.47 3.367 0.735 5.020 1.653 5.020 2.816 0 0.674-0.612 1.53-1.837 2.694s-2.082 1.959-2.571 2.449l-0.735 1.714zM900.735 217.653c0-1.47 0.674-2.204 1.959-2.204 5.204 0 10.898 1.53 17.020 4.53 6.184 3.061 11.878 7.041 16.898 11.755 5.020 4.653 9.306 9.98 12.857 15.796 3.429 5.694 5.143 11.265 5.143 16.653 0.061 4.592-1.347 9.061-4.041 12.735-2.694 3.735-6.674 5.633-11.878 5.633-0.612-0.122-1.163-0.306-1.714-0.49l-3.306-1.102c-1.225-0.429-2.388-0.796-3.429-1.102-0.674-0.122-1.286-0.429-1.837-0.735-0.306-0.184-1.163-2.020-2.571-5.51s-2.939-7.408-4.653-11.755c-1.714-4.347-3.306-8.51-4.775-12.49s-2.449-6.49-2.939-7.47c-0.796-1.775-1.592-3.49-2.326-5.143s-1.53-3.245-2.326-4.898c-0.306-0.674-0.918-1.653-1.837-3.061s-1.775-2.816-2.694-4.286c-0.918-1.47-1.714-2.816-2.449-4.041s-1.102-2.143-1.102-2.816v0z"></path>
</symbol>
<symbol id="svgicon-notasks" viewBox="0 0 230 300">
<path fill="#e1e0e1" style="fill: var(--color54, #e1e0e1)" d="M214.989 300h-199.749c-0.021 0-0.046 0-0.071 0-8.372 0-15.159-6.787-15.159-15.159 0-0.017 0-0.033 0-0.050v0.003-229.549c-0.001-0.053-0.001-0.116-0.001-0.18 0-4.151 1.703-7.904 4.448-10.599l0.002-0.002c2.673-2.733 6.399-4.428 10.52-4.428 0.092 0 0.183 0.001 0.275 0.003l-0.014-0h41.499v-16.053c0.013-2.434 1.99-4.402 4.425-4.402 0 0 0 0 0 0h16.477v-15.159c0 0 0 0 0 0 0-2.436 1.968-4.412 4.4-4.425h67.275c2.444 0 4.425 1.981 4.425 4.425v15.159h15.324c0.035-0.001 0.076-0.001 0.118-0.001 2.436 0 4.413 1.969 4.425 4.402v16.054h41.381c8.335 0.027 15.085 6.777 15.112 15.109v229.646c0 0.028 0 0.061 0 0.094 0 8.33-6.739 15.085-15.062 15.112h-0.003zM20.3 60.33v219.404h189.627v-219.404h-36.461v16.783c0 0 0 0 0 0 0 2.436-1.968 4.412-4.4 4.425h-107.902c-2.444 0-4.425-1.981-4.425-4.425v0-16.783z"></path>
<path fill="#e1e0e1" style="fill: var(--color54, #e1e0e1)" d="M156.071 128.897c-4.331 0-7.815 5.979-7.815 13.37s3.484 13.346 7.815 13.346 7.791-5.979 7.791-13.346-3.484-13.37-7.791-13.37z"></path>
<path fill="#e1e0e1" style="fill: var(--color54, #e1e0e1)" d="M134.416 190.639c-0.623-0.428-1.392-0.683-2.222-0.683-1.379 0-2.592 0.705-3.3 1.775l-0.009 0.015v0.188s-5.131 8.239-13.676 8.239-13.629-8.168-13.676-8.239c-0.699-1.227-1.999-2.040-3.488-2.040-0.783 0-1.514 0.225-2.131 0.614l0.016-0.010-0.188 0.141c-1.157 0.79-1.906 2.101-1.906 3.589 0 0.851 0.245 1.644 0.669 2.314l-0.011-0.018c0.282 0.494 7.556 12.169 20.549 12.169s20.243-11.769 20.549-12.169c0.421-0.659 0.671-1.462 0.671-2.324 0-1.466-0.725-2.763-1.835-3.552l-0.013-0.009z"></path>
<path fill="#e1e0e1" style="fill: var(--color54, #e1e0e1)" d="M92.658 149.847c-0.403 0.331-0.923 0.532-1.491 0.532-0.71 0-1.347-0.315-1.779-0.812l-0.002-0.003c-0.209-0.243-0.371-0.535-0.466-0.854l-0.004-0.017s-3.413-7.062-9.11-7.062-9.086 7.062-9.133 7.062c-0.299 0.981-1.195 1.683-2.256 1.683-0.219 0-0.431-0.030-0.632-0.086l0.016 0.004c-0.335-0.093-0.626-0.247-0.875-0.451l0.004 0.003c-0.787-0.812-1.273-1.922-1.273-3.144 0-0.714 0.166-1.39 0.461-1.99l-0.012 0.027c0.188-0.447 5.037-10.592 13.7-10.592s13.488 10.145 13.7 10.592c0.272 0.568 0.432 1.235 0.432 1.938 0 1.232-0.488 2.35-1.281 3.171l0.001-0.001z"></path>
</symbol>
<symbol id="svgicon-nodata" viewBox="0 0 272 300">
<path fill="#e1e0e1" style="fill: var(--color54, #e1e0e1)" d="M87.782 119.232c-4.44 0-8.026 6.916-8.026 15.484s3.586 15.484 8.026 15.484 8.055-6.86 8.055-15.398-3.615-15.484-8.055-15.484z"></path>
<path fill="#e1e0e1" style="fill: var(--color54, #e1e0e1)" d="M230.808 300.028h-189.564c-11.697-0.179-22.103-5.554-29.038-13.912l-0.051-0.064c-7.557-8.819-12.156-20.366-12.156-32.987 0-0.171 0.001-0.341 0.003-0.512l-0 0.026v-205.133c-0.001-0.138-0.002-0.301-0.002-0.465 0-12.628 4.599-24.181 12.214-33.077l-0.058 0.069c6.986-8.422 17.392-13.796 29.059-13.975l0.030-0h60.968l1.537 1.765 28.833 33.159h98.226c22.77 0 41.101 21.29 41.271 47.448v170.209c-0.171 26.157-18.558 47.305-41.271 47.448zM41.245 25.047c-10.588 0-19.44 10.133-19.469 22.4v205.161c0 12.353 8.738 22.372 19.469 22.372h189.564c10.759 0 19.469-10.019 19.469-22.372v-170.237c0-12.381-8.71-22.4-19.469-22.4h-107.078l-1.537-1.736-28.918-33.188z"></path>
<path fill="#e1e0e1" style="fill: var(--color54, #e1e0e1)" d="M190.989 119.232c-4.44 0-8.055 7.030-8.055 15.569s3.615 15.484 8.055 15.484 8.055-6.945 8.055-15.484-3.615-15.484-8.055-15.484z"></path>
<path fill="#e1e0e1" style="fill: var(--color54, #e1e0e1)" d="M156.634 202.77c-0.549 0.211-1.184 0.333-1.848 0.333-0.929 0-1.803-0.239-2.562-0.66l0.027 0.014c-0.164-0.104-0.305-0.226-0.425-0.367l-0.002-0.003c-3.146-2.606-7.223-4.186-11.67-4.186s-8.524 1.581-11.701 4.211l0.031-0.025c-0.777 0.647-1.786 1.040-2.886 1.040-0.421 0-0.829-0.057-1.216-0.165l0.032 0.008c-0.273-0.052-0.512-0.121-0.741-0.209l0.029 0.010c-1.679-0.768-2.106-1.992-1.082-2.846 4.751-3.863 10.876-6.203 17.547-6.203s12.796 2.34 17.599 6.243l-0.052-0.040c1.025 0.996 0.598 2.22-1.053 2.846z"></path>
</symbol>
<symbol id="svgicon-notimeentries" viewBox="0 0 282 300">
<path fill="#e1e0e1" style="fill: var(--color54, #e1e0e1)" d="M118.543 218.322c-3.091 0-5.74 3.974-5.74 8.83s2.649 8.83 5.74 8.83 5.74-3.974 5.74-8.83-2.428-8.83-5.74-8.83z"></path>
<path fill="#e1e0e1" style="fill: var(--color54, #e1e0e1)" d="M218.101 289.404h-198.896c-5.077 0-9.934-1.987-13.466-5.74-3.753-3.311-5.74-8.168-5.74-13.245v-190.949c0-5.077 1.987-9.934 5.74-13.466 3.532-3.753 8.389-5.74 13.466-5.74h19.205v-14.349c0-6.402 2.428-12.362 7.064-16.777 4.415-4.636 10.596-7.064 16.998-7.064h9.492c6.402 0 12.583 2.428 16.998 7.064 4.636 4.415 7.064 10.596 7.064 16.777v14.349h45.696v-14.349c0-6.402 2.428-12.362 7.064-16.777 4.415-4.636 10.596-7.064 16.998-7.064h9.492c6.402 0 12.583 2.428 16.998 7.064 4.636 4.415 7.064 10.596 7.064 16.777v14.349h19.205c10.596 0.221 18.985 8.609 19.205 18.985v190.949c-0.662 10.596-9.051 19.205-19.647 19.205v0zM19.205 117.66v152.759h198.896v-152.759h-198.896zM165.342 41.28c-1.325 0-2.428 0.442-3.532 1.325-0.883 0.883-1.325 2.208-1.325 3.532v43.046c0 1.325 0.442 2.428 1.325 3.532 0.883 0.883 2.208 1.325 3.532 1.325h9.492c2.428 0 4.636-1.766 4.857-4.415 0-0.221 0-0.221 0-0.442v-43.046c0-1.325-0.442-2.428-1.325-3.532-0.883-0.883-2.208-1.325-3.532-1.325h-9.492zM62.252 41.28c-1.325 0-2.428 0.442-3.532 1.325-0.883 0.883-1.325 2.208-1.325 3.532v43.046c0 2.649 1.987 4.636 4.415 4.857 0.221 0 0.221 0 0.442 0h9.492c2.649 0 4.636-1.766 4.857-4.415 0-0.221 0-0.221 0-0.442v-43.046c0-1.325-0.442-2.428-1.325-3.532-0.883-0.883-2.208-1.325-3.532-1.325h-9.492z"></path>
<path fill="#e1e0e1" style="fill: var(--color54, #e1e0e1)" d="M282.561 64.238v6.402h-26.49v-5.077l15.011-17.219h-14.79v-6.402h25.607v5.077l-15.011 17.219h15.673z"></path>
<path fill="#e1e0e1" style="fill: var(--color54, #e1e0e1)" d="M251.876 17.219v4.857h-19.868v-3.753l11.258-13.466h-11.038v-4.857h19.205v3.974l-11.258 13.466h11.7z"></path>
<path fill="#e1e0e1" style="fill: var(--color54, #e1e0e1)" d="M179.47 170.64c-1.325-0.883-2.87-0.442-3.753 0.883-2.87 5.077-9.272 6.623-14.349 3.753-1.545-0.883-2.87-2.208-3.753-3.753-0.883-1.325-2.428-1.545-3.753-0.883-1.325 0.883-1.545 2.428-0.883 3.753 4.636 7.506 14.349 9.934 21.854 5.298 2.208-1.325 3.974-3.091 5.298-5.298 0.883-1.325 0.662-2.87-0.662-3.753 0 0 0 0 0 0v0z"></path>
<path fill="#e1e0e1" style="fill: var(--color54, #e1e0e1)" d="M88.963 170.64c-1.325-0.883-2.87-0.442-3.753 0.883-2.87 5.077-9.272 6.623-14.349 3.753-1.545-0.883-2.87-2.208-3.753-3.753-0.883-1.325-2.428-1.545-3.753-0.883-1.325 0.883-1.545 2.428-0.883 3.753 4.636 7.506 14.349 9.934 21.854 5.298 2.208-1.325 3.974-3.091 5.298-5.298 0.883-1.325 0.662-2.87-0.662-3.753 0 0 0 0 0 0v0z"></path>
</symbol>
<symbol id="svgicon-coffee" viewBox="0 0 300 300">
<path d="M60 165h-30c-16.569 0-30-13.431-30-30v0-60c0-16.5 13.5-30 30-30h30v-30h210v150c0 33.137-26.863 60-60 60v0h-90c-33.137 0-60-26.863-60-60v0zM60 135v-60h-30v60h30zM30 255v-15h270v15l-60 30h-150l-60-30z"></path>
</symbol>
</defs>
</svg>
